<svg width="152" height="40" viewBox="0 0 152 40" fill="none" xmlns="http://www.w3.org/2000/svg">
<path fill-rule="evenodd" clip-rule="evenodd" d="M17.6015 1.90906C16.0439 3.10205 15.0746 4.81697 14.6936 7.05382L13.9976 11.0304C13.8982 11.5772 13.8485 12.1074 13.8485 12.6211C13.8485 14.4271 14.4367 15.8604 15.6131 16.9208C16.7896 17.9647 18.4796 18.4866 20.6833 18.4866C23.235 18.4866 25.2813 17.8984 26.8223 16.722C28.3798 15.529 29.3574 13.8224 29.755 11.6021L30.4509 7.62546C30.5503 7.07867 30.6 6.54845 30.6 6.03481C30.6 4.21219 30.0035 2.77066 28.8106 1.71023C27.6341 0.633227 25.9524 0.0947266 23.7652 0.0947266C21.2301 0.0947266 19.1755 0.699505 17.6015 1.90906ZM19.6146 11.9997C19.6146 11.834 19.6229 11.7015 19.6395 11.6021L20.4597 6.97925C20.5756 6.36619 20.849 5.90225 21.2798 5.58744C21.7106 5.25605 22.274 5.09036 22.9699 5.09036C23.5664 5.09036 24.022 5.21463 24.3369 5.46317C24.6682 5.71171 24.8339 6.06795 24.8339 6.53188C24.8339 6.6313 24.8174 6.78042 24.7842 6.97925L23.9641 11.6021C23.8646 12.2151 23.5995 12.6874 23.1687 13.0188C22.7379 13.3336 22.1746 13.491 21.4787 13.491C20.236 13.491 19.6146 12.9939 19.6146 11.9997ZM15.6082 0.641513C15.4591 0.525527 15.2189 0.467535 14.8875 0.467535H4.05118C3.63695 0.467535 3.33871 0.550381 3.15644 0.716073C2.97418 0.865197 2.84991 1.14687 2.78364 1.56111L0.0497078 17.0202L0 17.4179C0 17.683 0.066277 17.8653 0.198831 17.9647C0.347954 18.0641 0.596493 18.1138 0.944448 18.1138H4.52341C4.93764 18.1138 5.23589 18.0392 5.41815 17.8901C5.61698 17.7244 5.74953 17.4345 5.81581 17.0202L6.58628 12.6708H11.3582C11.7725 12.6708 12.0707 12.5962 12.253 12.4471C12.4518 12.2814 12.5844 11.9915 12.6506 11.5772L13.1229 8.79359L13.1726 8.39593C13.1726 8.13082 13.098 7.94856 12.9489 7.84914C12.8163 7.74973 12.5761 7.70002 12.2281 7.70002H7.45617L7.85383 5.43831H14.0176C14.4318 5.43831 14.7301 5.36375 14.9123 5.21463C15.1112 5.04893 15.2437 4.75897 15.31 4.34474L15.8071 1.56111C15.8236 1.46169 15.8319 1.33742 15.8319 1.1883C15.8319 0.923189 15.7574 0.740928 15.6082 0.641513ZM30.8456 7.05382C31.2267 4.81697 32.196 3.10205 33.7535 1.90906C35.3276 0.699505 37.3822 0.0947266 39.9172 0.0947266C42.1044 0.0947266 43.7862 0.633227 44.9626 1.71023C46.1556 2.77066 46.7521 4.21219 46.7521 6.03481C46.7521 6.54845 46.7024 7.07867 46.6029 7.62546L45.907 11.6021C45.5094 13.8224 44.5318 15.529 42.9743 16.722C41.4333 17.8984 39.387 18.4866 36.8354 18.4866C34.6317 18.4866 32.9416 17.9647 31.7652 16.9208C30.5888 15.8604 30.0005 14.4271 30.0005 12.6211C30.0005 12.1074 30.0503 11.5772 30.1497 11.0304L30.8456 7.05382ZM35.7915 11.6021C35.7749 11.7015 35.7667 11.834 35.7667 11.9997C35.7667 12.9939 36.388 13.491 37.6307 13.491C38.3266 13.491 38.8899 13.3336 39.3208 13.0188C39.7516 12.6874 40.0167 12.2151 40.1161 11.6021L40.9363 6.97925C40.9694 6.78042 40.986 6.6313 40.986 6.53188C40.986 6.06795 40.8203 5.71171 40.4889 5.46317C40.1741 5.21463 39.7184 5.09036 39.1219 5.09036C38.426 5.09036 37.8627 5.25605 37.4319 5.58744C37.0011 5.90225 36.7277 6.36619 36.6117 6.97925L35.7915 11.6021ZM62.2708 0.641513C62.1216 0.525527 61.8814 0.467535 61.55 0.467535H48.7751C48.3609 0.467535 48.0626 0.550381 47.8804 0.716073C47.6981 0.865197 47.5738 1.14687 47.5075 1.56111L47.0105 4.34474L46.9608 4.7424C46.9608 5.00751 47.027 5.18977 47.1596 5.28919C47.3087 5.38861 47.5573 5.43831 47.9052 5.43831H51.4096L49.3716 17.0202L49.3219 17.4179C49.3219 17.683 49.3882 17.8653 49.5207 17.9647C49.6698 18.0641 49.9184 18.1138 50.2663 18.1138H53.8453C54.2595 18.1138 54.5578 18.0392 54.74 17.8901C54.9389 17.7244 55.0714 17.4345 55.1377 17.0202L57.1757 5.43831H60.6801C61.0943 5.43831 61.3926 5.36375 61.5749 5.21463C61.7737 5.04893 61.9062 4.75897 61.9725 4.34474L62.4696 1.56111C62.4862 1.46169 62.4944 1.33742 62.4944 1.1883C62.4944 0.923189 62.4199 0.740928 62.2708 0.641513ZM71.6039 0.442681C73.178 0.442681 74.3958 0.782351 75.2574 1.46169C76.1356 2.14103 76.5747 3.09376 76.5747 4.31989C76.5747 4.68441 76.5416 5.02408 76.4753 5.3389C76.3262 6.15079 76.0611 6.82185 75.68 7.35206C75.2989 7.86571 74.7272 8.34622 73.965 8.79359L73.9402 8.91786C74.5532 9.2161 75.0172 9.65519 75.332 10.2351C75.6634 10.7985 75.8291 11.4695 75.8291 12.2483C75.8291 12.6625 75.7959 13.0436 75.7297 13.3916C75.448 14.9491 74.6858 16.1255 73.4431 16.9208C72.2004 17.7161 70.6263 18.1138 68.7209 18.1138H60.9167C60.5688 18.1138 60.3203 18.0641 60.1711 17.9647C60.0386 17.8653 59.9723 17.683 59.9723 17.4179L60.022 17.0202L62.7559 1.53625C62.8388 1.12202 62.9713 0.840343 63.1536 0.69122C63.3358 0.525527 63.6341 0.442681 64.0483 0.442681H71.6039ZM68.3729 13.6898C68.8368 13.6898 69.1931 13.607 69.4416 13.4413C69.6902 13.259 69.8476 12.9525 69.9138 12.5217C69.9304 12.4388 69.9387 12.3394 69.9387 12.2234C69.9387 11.9252 69.8393 11.7181 69.6405 11.6021C69.4582 11.4695 69.1682 11.4032 68.7706 11.4032H66.7823L66.3846 13.6898H68.3729ZM69.044 6.9544C69.4913 6.9544 69.831 6.87984 70.063 6.73072C70.2949 6.56502 70.4441 6.29163 70.5103 5.91054C70.5269 5.84426 70.5352 5.75313 70.5352 5.63714C70.5352 5.35547 70.4441 5.15664 70.2618 5.04065C70.0795 4.9081 69.7979 4.84182 69.4168 4.84182H67.9255L67.5527 6.9544H69.044ZM74.1681 17.6913C74.1681 17.973 74.4084 18.1138 74.8889 18.1138H78.4679C79.0478 18.1138 79.4786 18.031 79.7603 17.8653C80.0419 17.683 80.2739 17.3848 80.4562 16.9705L81.0278 15.703H85.7004L85.8246 16.9705C85.8578 17.3848 85.9903 17.683 86.2223 17.8653C86.4543 18.031 86.8851 18.1138 87.5147 18.1138H90.8948C91.5576 18.1138 91.889 17.8487 91.889 17.3185C91.889 17.2025 91.8807 17.1114 91.8641 17.0451L89.0556 1.33742C88.9894 1.00604 88.8651 0.78235 88.6828 0.666366C88.5171 0.533812 88.2437 0.467535 87.8626 0.467535H84.1843C83.7866 0.467535 83.4801 0.525527 83.2647 0.641513C83.0658 0.757497 82.8753 0.997751 82.693 1.36228L74.3918 17.0451C74.2427 17.3102 74.1681 17.5256 74.1681 17.6913ZM85.079 9.19125L85.2778 11.1796H83.0658L83.9854 9.1664C84.4328 8.15567 84.7642 7.02068 84.9796 5.76141H85.2281C85.1122 6.62302 85.0541 7.46805 85.0541 8.29651C85.0541 8.69417 85.0624 8.99242 85.079 9.19125ZM99.926 0.467535C100.257 0.467535 100.498 0.525527 100.647 0.641513C100.796 0.740928 100.87 0.923189 100.87 1.1883C100.87 1.33742 100.862 1.46169 100.846 1.56111L98.8076 13.1182H104.35C104.698 13.1182 104.938 13.1679 105.071 13.2673C105.22 13.3667 105.294 13.549 105.294 13.8141L105.245 14.2117L104.748 17.0202C104.681 17.4345 104.549 17.7244 104.35 17.8901C104.168 18.0392 103.87 18.1138 103.455 18.1138H93.2403C92.8924 18.1138 92.6439 18.0641 92.4947 17.9647C92.3622 17.8653 92.2959 17.683 92.2959 17.4179L92.3456 17.0202L95.0795 1.56111C95.1458 1.14687 95.2701 0.865197 95.4523 0.716073C95.6346 0.550381 95.9329 0.467535 96.3471 0.467535H99.926ZM113.381 0.641513C113.232 0.525527 112.991 0.467535 112.66 0.467535H109.081C108.667 0.467535 108.368 0.550381 108.186 0.716073C108.004 0.865197 107.88 1.14687 107.813 1.56111L105.079 17.0202L105.03 17.4179C105.03 17.683 105.096 17.8653 105.229 17.9647C105.378 18.0641 105.626 18.1138 105.974 18.1138H116.189C116.603 18.1138 116.902 18.0392 117.084 17.8901C117.283 17.7244 117.415 17.4345 117.482 17.0202L117.979 14.2117L118.028 13.8141C118.028 13.549 117.954 13.3667 117.805 13.2673C117.672 13.1679 117.432 13.1182 117.084 13.1182H111.542L113.58 1.56111C113.596 1.46169 113.604 1.33742 113.604 1.1883C113.604 0.923189 113.53 0.740928 113.381 0.641513ZM41.0908 21.2491C40.9416 21.1331 40.7014 21.0752 40.37 21.0752H29.5337C29.1195 21.0752 28.8212 21.158 28.639 21.3237C28.4567 21.4728 28.3324 21.7545 28.2662 22.1687L25.5322 37.6278L25.4825 38.0255C25.4825 38.2906 25.5488 38.4729 25.6813 38.5723C25.8305 38.6717 26.079 38.7214 26.427 38.7214H30.0059C30.4202 38.7214 30.7184 38.6469 30.9007 38.4977C31.0995 38.332 31.232 38.0421 31.2983 37.6278L32.0688 33.2784H36.8407C37.255 33.2784 37.5532 33.2038 37.7355 33.0547C37.9343 32.889 38.0669 32.5991 38.1331 32.1848L38.6054 29.4012L38.6551 29.0035C38.6551 28.7384 38.5805 28.5562 38.4314 28.4568C38.2988 28.3573 38.0586 28.3076 37.7106 28.3076H32.9387L33.3363 26.0459H39.5001C39.9143 26.0459 40.2126 25.9714 40.3949 25.8222C40.5937 25.6566 40.7262 25.3666 40.7925 24.9524L41.2896 22.1687C41.3062 22.0693 41.3144 21.945 41.3144 21.7959C41.3144 21.5308 41.2399 21.3485 41.0908 21.2491ZM45.387 32.7565C45.387 32.6736 45.4036 32.5328 45.4367 32.334L47.2511 22.1687C47.2676 22.0693 47.2759 21.945 47.2759 21.7959C47.2759 21.5308 47.2014 21.3485 47.0522 21.2491C46.9031 21.1331 46.6629 21.0752 46.3315 21.0752H42.7525C42.3383 21.0752 42.04 21.158 41.8578 21.3237C41.6921 21.4728 41.5678 21.7545 41.485 22.1687L39.8198 31.5138C39.7203 32.0606 39.6706 32.5991 39.6706 33.1293C39.6706 34.9353 40.2423 36.3852 41.3856 37.4787C42.5454 38.5557 44.2106 39.0942 46.3812 39.0942C48.9163 39.0942 50.9295 38.5226 52.4207 37.3793C53.9119 36.236 54.8481 34.5791 55.2292 32.4085L57.0435 22.1687C57.0766 21.9699 57.0932 21.8373 57.0932 21.7711C57.0932 21.5225 57.0187 21.3485 56.8695 21.2491C56.7204 21.1331 56.4719 21.0752 56.1239 21.0752H52.5449C52.1307 21.0752 51.8325 21.158 51.6502 21.3237C51.4679 21.4728 51.3437 21.7545 51.2774 22.1687L49.4631 32.334C49.3637 32.9139 49.1151 33.3613 48.7175 33.6761C48.3364 33.9743 47.8144 34.1234 47.1517 34.1234C46.5717 34.1234 46.1326 34.0075 45.8344 33.7755C45.5362 33.5435 45.387 33.2038 45.387 32.7565ZM71.8881 21.0752C72.2195 21.0752 72.4598 21.1331 72.6089 21.2491C72.758 21.3485 72.8326 21.5308 72.8326 21.7959C72.8326 21.945 72.8243 22.0693 72.8077 22.1687L70.0738 37.6278C70.0075 38.0421 69.875 38.332 69.6761 38.4977C69.4939 38.6469 69.1956 38.7214 68.7814 38.7214H65.3267C65.0616 38.7214 64.8545 38.68 64.7054 38.5971C64.5563 38.5143 64.4403 38.3817 64.3574 38.1995L62.4437 33.7258L62.22 33.2038C61.9383 32.5411 61.7146 31.9114 61.5489 31.315C61.3998 30.7019 61.2258 29.658 61.027 28.1834H60.8282L60.8779 29.3018C60.911 30.3954 60.9276 31.0581 60.9276 31.2901C60.9276 31.9529 60.8944 32.5494 60.8282 33.0796C60.7785 33.6098 60.6625 34.3886 60.4802 35.4158L60.0825 37.6278C60.0163 38.0421 59.8837 38.332 59.6849 38.4977C59.5026 38.6469 59.2044 38.7214 58.7901 38.7214H55.5094C55.1615 38.7214 54.9129 38.6717 54.7638 38.5723C54.6313 38.4729 54.565 38.2906 54.565 38.0255L54.6147 37.6278L57.3486 22.1687C57.4149 21.7545 57.5392 21.4728 57.7214 21.3237C57.9037 21.158 58.2019 21.0752 58.6162 21.0752H62.3194C62.6011 21.0752 62.8165 21.1166 62.9656 21.1994C63.1147 21.2657 63.2307 21.39 63.3136 21.5722L65.5007 26.8413C65.8155 27.6034 66.064 28.2662 66.2463 28.8296C66.4286 29.3764 66.644 30.2628 66.8925 31.4889H67.1162L66.9671 30.3208C66.8677 29.5752 66.7848 28.9124 66.7185 28.3325C66.6688 27.7526 66.644 27.2803 66.644 26.9158C66.644 26.3028 66.7434 25.4743 66.9422 24.4304L67.3399 22.1687C67.4062 21.7545 67.5304 21.4728 67.7127 21.3237C67.895 21.158 68.1932 21.0752 68.6074 21.0752H71.8881ZM85.7089 22.7155C84.5491 21.6219 82.8922 21.0752 80.7382 21.0752H74.4501C74.0359 21.0752 73.7377 21.158 73.5554 21.3237C73.3731 21.4728 73.2489 21.7545 73.1826 22.1687L70.4487 37.6278L70.399 38.0255C70.399 38.2906 70.4652 38.4729 70.5978 38.5723C70.7469 38.6717 70.9954 38.7214 71.3434 38.7214H77.6314C80.1997 38.7214 82.2625 38.1498 83.82 37.0065C85.3941 35.8466 86.3717 34.1566 86.7528 31.9363L87.3245 28.7302C87.4239 28.1502 87.4736 27.5952 87.4736 27.0649C87.4736 25.2423 86.8854 23.7925 85.7089 22.7155ZM80.2162 33.1541C79.7854 33.5352 79.1227 33.7258 78.2279 33.7258H76.9107L78.2528 26.0459H79.57C80.3322 26.0459 80.8707 26.1785 81.1855 26.4436C81.5169 26.7087 81.6826 27.1229 81.6826 27.6863C81.6826 27.9017 81.6578 28.1502 81.6081 28.4319L81.111 31.3398C80.9619 32.1683 80.6636 32.7731 80.2162 33.1541ZM100.868 21.0752C101.199 21.0752 101.44 21.1331 101.589 21.2491C101.738 21.3485 101.812 21.5308 101.812 21.7959C101.812 21.945 101.804 22.0693 101.787 22.1687L101.29 24.9524C101.224 25.3666 101.092 25.6566 100.893 25.8222C100.71 25.9714 100.412 26.0459 99.998 26.0459H93.8342L93.6105 27.3383H98.3825C98.7305 27.3383 98.9707 27.388 99.1033 27.4875C99.2524 27.5869 99.3269 27.7691 99.3269 28.0342L99.2772 28.4319L98.7802 31.2155C98.7139 31.6298 98.5896 31.9197 98.4073 32.0854C98.2251 32.2346 97.9268 32.3091 97.5126 32.3091H92.7407L92.4921 33.7258H98.8299C99.1778 33.7258 99.4181 33.7755 99.5506 33.8749C99.6998 33.9743 99.7743 34.1566 99.7743 34.4217L99.7246 34.8194L99.2275 37.6278C99.1613 38.0421 99.0287 38.332 98.8299 38.4977C98.6476 38.6469 98.3494 38.7214 97.9351 38.7214H86.9249C86.5769 38.7214 86.3284 38.6717 86.1792 38.5723C86.0467 38.4729 85.9804 38.2906 85.9804 38.0255L86.0301 37.6278L88.764 22.1687C88.8303 21.7545 88.9546 21.4728 89.1368 21.3237C89.3191 21.158 89.6174 21.0752 90.0316 21.0752H100.868ZM114.737 22.3924C113.76 21.5142 112.417 21.0752 110.711 21.0752H103.429C103.014 21.0752 102.716 21.158 102.534 21.3237C102.352 21.4728 102.227 21.7545 102.161 22.1687L99.4271 37.6278L99.3774 38.0255C99.3774 38.2906 99.4437 38.4729 99.5763 38.5723C99.7254 38.6717 99.9739 38.7214 100.322 38.7214H103.901C104.315 38.7214 104.613 38.6469 104.796 38.4977C104.994 38.332 105.127 38.0421 105.193 37.6278L105.964 33.2536H106.088C106.419 33.2536 106.651 33.3447 106.784 33.527C106.916 33.6926 107.041 33.9578 107.157 34.3223L108.002 37.3047C108.134 37.8018 108.375 38.1663 108.723 38.3983C109.07 38.6137 109.576 38.7214 110.239 38.7214H113.594C113.942 38.7214 114.207 38.6386 114.389 38.4729C114.571 38.3072 114.663 38.0835 114.663 37.8018C114.663 37.6693 114.638 37.5201 114.588 37.3545L113.32 33.7258C113.155 33.2453 112.956 32.8228 112.724 32.4582C114.58 31.3647 115.706 29.7077 116.104 27.4875C116.187 27.0567 116.228 26.5761 116.228 26.0459C116.228 24.4718 115.731 23.254 114.737 22.3924ZM109.766 28.1337C109.501 28.4319 109.145 28.581 108.698 28.581H106.784L107.231 26.0459H109.145C109.493 26.0459 109.75 26.1288 109.915 26.2945C110.098 26.4436 110.189 26.6673 110.189 26.9655C110.189 27.4295 110.048 27.8188 109.766 28.1337Z" fill="#9BF39F"/>
<path fill-rule="evenodd" clip-rule="evenodd" d="M117.71 37.9885C117.632 38.5075 118.034 38.9743 118.559 38.9743H123.319C123.745 38.9743 124.106 38.6627 124.168 38.2419L126.658 21.469C130.328 19.9339 134.721 20.6627 137.705 23.6554C141.48 27.4427 147.513 27.6045 151.482 24.1407C151.824 23.8419 152 23.4003 152 22.9459V17.2025C148.056 21.1587 141.649 21.1587 137.705 17.2025C134.991 14.4802 131.111 13.6312 127.67 14.6552L128.279 10.5509C131.562 9.79357 135.15 10.6963 137.705 13.2589C141.649 17.2151 148.056 17.2151 152 13.2589V6.80596C148.056 10.7622 141.649 10.7622 137.705 6.80596C135.403 4.49734 132.263 3.53589 129.263 3.92162L129.687 1.06258C129.763 0.549693 129.371 0.0869106 128.853 0.0782732L124.162 0.000120847C123.731 -0.00704773 123.362 0.305487 123.298 0.731057L117.71 37.9885Z" fill="#9BF39F"/>
</svg>
