<svg width="152" height="40" viewBox="0 0 152 40" fill="none" xmlns="http://www.w3.org/2000/svg">
<path fill-rule="evenodd" clip-rule="evenodd" d="M17.6015 1.90894C16.0439 3.10193 15.0746 4.81684 14.6936 7.05369L13.9976 11.0303C13.8982 11.5771 13.8485 12.1073 13.8485 12.621C13.8485 14.427 14.4367 15.8603 15.6131 16.9207C16.7896 17.9646 18.4796 18.4865 20.6833 18.4865C23.235 18.4865 25.2813 17.8983 26.8223 16.7219C28.3798 15.5289 29.3574 13.8222 29.755 11.602L30.4509 7.62533C30.5503 7.07855 30.6 6.54833 30.6 6.03468C30.6 4.21207 30.0035 2.77054 28.8106 1.71011C27.6341 0.633105 25.9524 0.0946045 23.7652 0.0946045C21.2301 0.0946045 19.1755 0.699383 17.6015 1.90894ZM19.6146 11.9996C19.6146 11.8339 19.6229 11.7014 19.6395 11.602L20.4597 6.97913C20.5756 6.36607 20.849 5.90213 21.2798 5.58732C21.7106 5.25593 22.274 5.09024 22.9699 5.09024C23.5664 5.09024 24.022 5.21451 24.3369 5.46305C24.6682 5.71158 24.8339 6.06782 24.8339 6.53176C24.8339 6.63118 24.8174 6.7803 24.7842 6.97913L23.9641 11.602C23.8646 12.215 23.5995 12.6872 23.1687 13.0186C22.7379 13.3334 22.1746 13.4909 21.4787 13.4909C20.236 13.4909 19.6146 12.9938 19.6146 11.9996ZM15.6082 0.64139C15.4591 0.525405 15.2189 0.467413 14.8875 0.467413H4.05118C3.63695 0.467413 3.33871 0.550259 3.15644 0.715951C2.97418 0.865075 2.84991 1.14675 2.78364 1.56098L0.0497078 17.0201L0 17.4178C0 17.6829 0.066277 17.8651 0.198831 17.9646C0.347954 18.064 0.596493 18.1137 0.944448 18.1137H4.52341C4.93764 18.1137 5.23589 18.0391 5.41815 17.89C5.61698 17.7243 5.74953 17.4343 5.81581 17.0201L6.58628 12.6707H11.3582C11.7725 12.6707 12.0707 12.5961 12.253 12.447C12.4518 12.2813 12.5844 11.9913 12.6506 11.5771L13.1229 8.79347L13.1726 8.3958C13.1726 8.1307 13.098 7.94844 12.9489 7.84902C12.8163 7.7496 12.5761 7.69989 12.2281 7.69989H7.45617L7.85383 5.43819H14.0176C14.4318 5.43819 14.7301 5.36363 14.9123 5.21451C15.1112 5.04881 15.2437 4.75885 15.31 4.34462L15.8071 1.56098C15.8236 1.46157 15.8319 1.3373 15.8319 1.18817C15.8319 0.923067 15.7574 0.740806 15.6082 0.64139ZM30.8456 7.05369C31.2267 4.81684 32.196 3.10193 33.7535 1.90894C35.3276 0.699383 37.3822 0.0946045 39.9172 0.0946045C42.1044 0.0946045 43.7862 0.633105 44.9626 1.71011C46.1556 2.77054 46.7521 4.21207 46.7521 6.03468C46.7521 6.54833 46.7024 7.07855 46.6029 7.62533L45.907 11.602C45.5094 13.8222 44.5318 15.5289 42.9743 16.7219C41.4333 17.8983 39.387 18.4865 36.8354 18.4865C34.6317 18.4865 32.9416 17.9646 31.7652 16.9207C30.5888 15.8603 30.0005 14.427 30.0005 12.621C30.0005 12.1073 30.0503 11.5771 30.1497 11.0303L30.8456 7.05369ZM35.7915 11.602C35.7749 11.7014 35.7667 11.8339 35.7667 11.9996C35.7667 12.9938 36.388 13.4909 37.6307 13.4909C38.3266 13.4909 38.8899 13.3334 39.3208 13.0186C39.7516 12.6872 40.0167 12.215 40.1161 11.602L40.9363 6.97913C40.9694 6.7803 40.986 6.63118 40.986 6.53176C40.986 6.06782 40.8203 5.71158 40.4889 5.46305C40.1741 5.21451 39.7184 5.09024 39.1219 5.09024C38.426 5.09024 37.8627 5.25593 37.4319 5.58732C37.0011 5.90213 36.7277 6.36607 36.6117 6.97913L35.7915 11.602ZM62.2708 0.64139C62.1216 0.525405 61.8814 0.467413 61.55 0.467413H48.7751C48.3609 0.467413 48.0626 0.550259 47.8804 0.715951C47.6981 0.865075 47.5738 1.14675 47.5075 1.56098L47.0105 4.34462L46.9608 4.74228C46.9608 5.00739 47.027 5.18965 47.1596 5.28907C47.3087 5.38848 47.5573 5.43819 47.9052 5.43819H51.4096L49.3716 17.0201L49.3219 17.4178C49.3219 17.6829 49.3882 17.8651 49.5207 17.9646C49.6698 18.064 49.9184 18.1137 50.2663 18.1137H53.8453C54.2595 18.1137 54.5578 18.0391 54.74 17.89C54.9389 17.7243 55.0714 17.4343 55.1377 17.0201L57.1757 5.43819H60.6801C61.0943 5.43819 61.3926 5.36363 61.5749 5.21451C61.7737 5.04881 61.9062 4.75885 61.9725 4.34462L62.4696 1.56098C62.4862 1.46157 62.4944 1.3373 62.4944 1.18817C62.4944 0.923067 62.4199 0.740806 62.2708 0.64139ZM71.6039 0.442559C73.178 0.442559 74.3958 0.782229 75.2574 1.46157C76.1356 2.14091 76.5747 3.09364 76.5747 4.31977C76.5747 4.68429 76.5416 5.02396 76.4753 5.33878C76.3262 6.15067 76.0611 6.82172 75.68 7.35194C75.2989 7.86559 74.7272 8.3461 73.965 8.79347L73.9402 8.91774C74.5532 9.21598 75.0172 9.65507 75.332 10.235C75.6634 10.7983 75.8291 11.4694 75.8291 12.2482C75.8291 12.6624 75.7959 13.0435 75.7297 13.3914C75.448 14.9489 74.6858 16.1254 73.4431 16.9207C72.2004 17.716 70.6263 18.1137 68.7209 18.1137H60.9167C60.5688 18.1137 60.3203 18.064 60.1711 17.9646C60.0386 17.8651 59.9723 17.6829 59.9723 17.4178L60.022 17.0201L62.7559 1.53613C62.8388 1.1219 62.9713 0.840221 63.1536 0.691098C63.3358 0.525405 63.6341 0.442559 64.0483 0.442559H71.6039ZM68.3729 13.6897C68.8368 13.6897 69.1931 13.6068 69.4416 13.4411C69.6902 13.2589 69.8476 12.9524 69.9138 12.5216C69.9304 12.4387 69.9387 12.3393 69.9387 12.2233C69.9387 11.9251 69.8393 11.7179 69.6405 11.602C69.4582 11.4694 69.1682 11.4031 68.7706 11.4031H66.7823L66.3846 13.6897H68.3729ZM69.044 6.95428C69.4913 6.95428 69.831 6.87972 70.063 6.73059C70.2949 6.5649 70.4441 6.29151 70.5103 5.91042C70.5269 5.84414 70.5352 5.75301 70.5352 5.63702C70.5352 5.35534 70.4441 5.15651 70.2618 5.04053C70.0795 4.90797 69.7979 4.8417 69.4168 4.8417H67.9255L67.5527 6.95428H69.044ZM74.1681 17.6912C74.1681 17.9728 74.4084 18.1137 74.8889 18.1137H78.4679C79.0478 18.1137 79.4786 18.0308 79.7603 17.8651C80.0419 17.6829 80.2739 17.3846 80.4562 16.9704L81.0278 15.7028H85.7004L85.8246 16.9704C85.8578 17.3846 85.9903 17.6829 86.2223 17.8651C86.4543 18.0308 86.8851 18.1137 87.5147 18.1137H90.8948C91.5576 18.1137 91.889 17.8486 91.889 17.3184C91.889 17.2024 91.8807 17.1112 91.8641 17.045L89.0556 1.3373C88.9894 1.00591 88.8651 0.782228 88.6828 0.666244C88.5171 0.53369 88.2437 0.467413 87.8626 0.467413H84.1843C83.7866 0.467413 83.4801 0.525405 83.2647 0.64139C83.0658 0.757375 82.8753 0.997629 82.693 1.36215L74.3918 17.045C74.2427 17.3101 74.1681 17.5255 74.1681 17.6912ZM85.079 9.19113L85.2778 11.1794H83.0658L83.9854 9.16628C84.4328 8.15555 84.7642 7.02056 84.9796 5.76129H85.2281C85.1122 6.62289 85.0541 7.46793 85.0541 8.29639C85.0541 8.69405 85.0624 8.9923 85.079 9.19113ZM99.926 0.467413C100.257 0.467413 100.498 0.525405 100.647 0.64139C100.796 0.740806 100.87 0.923067 100.87 1.18817C100.87 1.3373 100.862 1.46157 100.846 1.56098L98.8076 13.118H104.35C104.698 13.118 104.938 13.1678 105.071 13.2672C105.22 13.3666 105.294 13.5488 105.294 13.814L105.245 14.2116L104.748 17.0201C104.681 17.4343 104.549 17.7243 104.35 17.89C104.168 18.0391 103.87 18.1137 103.455 18.1137H93.2403C92.8924 18.1137 92.6439 18.064 92.4947 17.9646C92.3622 17.8651 92.2959 17.6829 92.2959 17.4178L92.3456 17.0201L95.0795 1.56098C95.1458 1.14675 95.2701 0.865075 95.4523 0.715951C95.6346 0.550259 95.9329 0.467413 96.3471 0.467413H99.926ZM113.381 0.64139C113.232 0.525405 112.991 0.467413 112.66 0.467413H109.081C108.667 0.467413 108.368 0.550259 108.186 0.715951C108.004 0.865075 107.88 1.14675 107.813 1.56098L105.079 17.0201L105.03 17.4178C105.03 17.6829 105.096 17.8651 105.229 17.9646C105.378 18.064 105.626 18.1137 105.974 18.1137H116.189C116.603 18.1137 116.902 18.0391 117.084 17.89C117.283 17.7243 117.415 17.4343 117.482 17.0201L117.979 14.2116L118.028 13.814C118.028 13.5488 117.954 13.3666 117.805 13.2672C117.672 13.1678 117.432 13.118 117.084 13.118H111.542L113.58 1.56098C113.596 1.46157 113.604 1.3373 113.604 1.18817C113.604 0.923067 113.53 0.740806 113.381 0.64139ZM41.0908 21.249C40.9416 21.133 40.7014 21.075 40.37 21.075H29.5337C29.1195 21.075 28.8212 21.1579 28.639 21.3236C28.4567 21.4727 28.3324 21.7544 28.2662 22.1686L25.5322 37.6277L25.4825 38.0254C25.4825 38.2905 25.5488 38.4728 25.6813 38.5722C25.8305 38.6716 26.079 38.7213 26.427 38.7213H30.0059C30.4202 38.7213 30.7184 38.6467 30.9007 38.4976C31.0995 38.3319 31.232 38.042 31.2983 37.6277L32.0688 33.2783H36.8407C37.255 33.2783 37.5532 33.2037 37.7355 33.0546C37.9343 32.8889 38.0669 32.599 38.1331 32.1847L38.6054 29.4011L38.6551 29.0034C38.6551 28.7383 38.5805 28.5561 38.4314 28.4566C38.2988 28.3572 38.0586 28.3075 37.7106 28.3075H32.9387L33.3363 26.0458H39.5001C39.9143 26.0458 40.2126 25.9712 40.3949 25.8221C40.5937 25.6564 40.7262 25.3665 40.7925 24.9522L41.2896 22.1686C41.3062 22.0692 41.3144 21.9449 41.3144 21.7958C41.3144 21.5307 41.2399 21.3484 41.0908 21.249ZM45.387 32.7564C45.387 32.6735 45.4036 32.5327 45.4367 32.3338L47.2511 22.1686C47.2676 22.0692 47.2759 21.9449 47.2759 21.7958C47.2759 21.5307 47.2014 21.3484 47.0522 21.249C46.9031 21.133 46.6629 21.075 46.3315 21.075H42.7525C42.3383 21.075 42.04 21.1579 41.8578 21.3236C41.6921 21.4727 41.5678 21.7544 41.485 22.1686L39.8198 31.5137C39.7203 32.0604 39.6706 32.5989 39.6706 33.1292C39.6706 34.9352 40.2423 36.385 41.3856 37.4786C42.5454 38.5556 44.2106 39.0941 46.3812 39.0941C48.9163 39.0941 50.9295 38.5225 52.4207 37.3792C53.9119 36.2359 54.8481 34.579 55.2292 32.4084L57.0435 22.1686C57.0766 21.9698 57.0932 21.8372 57.0932 21.7709C57.0932 21.5224 57.0187 21.3484 56.8695 21.249C56.7204 21.133 56.4719 21.075 56.1239 21.075H52.5449C52.1307 21.075 51.8325 21.1579 51.6502 21.3236C51.4679 21.4727 51.3437 21.7544 51.2774 22.1686L49.4631 32.3338C49.3637 32.9138 49.1151 33.3611 48.7175 33.676C48.3364 33.9742 47.8144 34.1233 47.1517 34.1233C46.5717 34.1233 46.1326 34.0073 45.8344 33.7754C45.5362 33.5434 45.387 33.2037 45.387 32.7564ZM71.8881 21.075C72.2195 21.075 72.4598 21.133 72.6089 21.249C72.758 21.3484 72.8326 21.5307 72.8326 21.7958C72.8326 21.9449 72.8243 22.0692 72.8077 22.1686L70.0738 37.6277C70.0075 38.042 69.875 38.3319 69.6761 38.4976C69.4939 38.6467 69.1956 38.7213 68.7814 38.7213H65.3267C65.0616 38.7213 64.8545 38.6799 64.7054 38.597C64.5563 38.5142 64.4403 38.3816 64.3574 38.1994L62.4437 33.7257L62.22 33.2037C61.9383 32.541 61.7146 31.9113 61.5489 31.3148C61.3998 30.7018 61.2258 29.6579 61.027 28.1832H60.8282L60.8779 29.3017C60.911 30.3952 60.9276 31.058 60.9276 31.29C60.9276 31.9528 60.8944 32.5492 60.8282 33.0795C60.7785 33.6097 60.6625 34.3884 60.4802 35.4157L60.0825 37.6277C60.0163 38.042 59.8837 38.3319 59.6849 38.4976C59.5026 38.6467 59.2044 38.7213 58.7901 38.7213H55.5094C55.1615 38.7213 54.9129 38.6716 54.7638 38.5722C54.6313 38.4728 54.565 38.2905 54.565 38.0254L54.6147 37.6277L57.3486 22.1686C57.4149 21.7544 57.5392 21.4727 57.7214 21.3236C57.9037 21.1579 58.2019 21.075 58.6162 21.075H62.3194C62.6011 21.075 62.8165 21.1165 62.9656 21.1993C63.1147 21.2656 63.2307 21.3898 63.3136 21.5721L65.5007 26.8411C65.8155 27.6033 66.064 28.2661 66.2463 28.8294C66.4286 29.3762 66.644 30.2627 66.8925 31.4888H67.1162L66.9671 30.3207C66.8677 29.5751 66.7848 28.9123 66.7185 28.3324C66.6688 27.7524 66.644 27.2802 66.644 26.9157C66.644 26.3026 66.7434 25.4742 66.9422 24.4303L67.3399 22.1686C67.4062 21.7544 67.5304 21.4727 67.7127 21.3236C67.895 21.1579 68.1932 21.075 68.6074 21.075H71.8881ZM85.7089 22.7154C84.5491 21.6218 82.8922 21.075 80.7382 21.075H74.4501C74.0359 21.075 73.7377 21.1579 73.5554 21.3236C73.3731 21.4727 73.2489 21.7544 73.1826 22.1686L70.4487 37.6277L70.399 38.0254C70.399 38.2905 70.4652 38.4728 70.5978 38.5722C70.7469 38.6716 70.9954 38.7213 71.3434 38.7213H77.6314C80.1997 38.7213 82.2625 38.1497 83.82 37.0064C85.3941 35.8465 86.3717 34.1565 86.7528 31.9362L87.3245 28.73C87.4239 28.1501 87.4736 27.595 87.4736 27.0648C87.4736 25.2422 86.8854 23.7924 85.7089 22.7154ZM80.2162 33.154C79.7854 33.5351 79.1227 33.7257 78.2279 33.7257H76.9107L78.2528 26.0458H79.57C80.3322 26.0458 80.8707 26.1784 81.1855 26.4435C81.5169 26.7086 81.6826 27.1228 81.6826 27.6862C81.6826 27.9016 81.6578 28.1501 81.6081 28.4318L81.111 31.3397C80.9619 32.1681 80.6636 32.7729 80.2162 33.154ZM100.868 21.075C101.199 21.075 101.44 21.133 101.589 21.249C101.738 21.3484 101.812 21.5307 101.812 21.7958C101.812 21.9449 101.804 22.0692 101.787 22.1686L101.29 24.9522C101.224 25.3665 101.092 25.6564 100.893 25.8221C100.71 25.9712 100.412 26.0458 99.998 26.0458H93.8342L93.6105 27.3382H98.3825C98.7305 27.3382 98.9707 27.3879 99.1033 27.4873C99.2524 27.5868 99.3269 27.769 99.3269 28.0341L99.2772 28.4318L98.7802 31.2154C98.7139 31.6297 98.5896 31.9196 98.4073 32.0853C98.2251 32.2344 97.9268 32.309 97.5126 32.309H92.7407L92.4921 33.7257H98.8299C99.1778 33.7257 99.4181 33.7754 99.5506 33.8748C99.6998 33.9742 99.7743 34.1565 99.7743 34.4216L99.7246 34.8192L99.2275 37.6277C99.1613 38.042 99.0287 38.3319 98.8299 38.4976C98.6476 38.6467 98.3494 38.7213 97.9351 38.7213H86.9249C86.5769 38.7213 86.3284 38.6716 86.1792 38.5722C86.0467 38.4728 85.9804 38.2905 85.9804 38.0254L86.0301 37.6277L88.764 22.1686C88.8303 21.7544 88.9546 21.4727 89.1368 21.3236C89.3191 21.1579 89.6174 21.075 90.0316 21.075H100.868ZM114.737 22.3923C113.76 21.5141 112.417 21.075 110.711 21.075H103.429C103.014 21.075 102.716 21.1579 102.534 21.3236C102.352 21.4727 102.227 21.7544 102.161 22.1686L99.4271 37.6277L99.3774 38.0254C99.3774 38.2905 99.4437 38.4728 99.5763 38.5722C99.7254 38.6716 99.9739 38.7213 100.322 38.7213H103.901C104.315 38.7213 104.613 38.6467 104.796 38.4976C104.994 38.3319 105.127 38.042 105.193 37.6277L105.964 33.2534H106.088C106.419 33.2534 106.651 33.3446 106.784 33.5268C106.916 33.6925 107.041 33.9576 107.157 34.3222L108.002 37.3046C108.134 37.8017 108.375 38.1662 108.723 38.3982C109.07 38.6136 109.576 38.7213 110.239 38.7213H113.594C113.942 38.7213 114.207 38.6384 114.389 38.4728C114.571 38.3071 114.663 38.0834 114.663 37.8017C114.663 37.6691 114.638 37.52 114.588 37.3543L113.32 33.7257C113.155 33.2452 112.956 32.8226 112.724 32.4581C114.58 31.3645 115.706 29.7076 116.104 27.4873C116.187 27.0565 116.228 26.576 116.228 26.0458C116.228 24.4717 115.731 23.2539 114.737 22.3923ZM109.766 28.1335C109.501 28.4318 109.145 28.5809 108.698 28.5809H106.784L107.231 26.0458H109.145C109.493 26.0458 109.75 26.1287 109.915 26.2943C110.098 26.4435 110.189 26.6672 110.189 26.9654C110.189 27.4293 110.048 27.8187 109.766 28.1335Z" fill="#061807"/>
<path fill-rule="evenodd" clip-rule="evenodd" d="M117.709 37.9885C117.631 38.5075 118.033 38.9743 118.558 38.9743H123.318C123.744 38.9743 124.105 38.6627 124.168 38.2419L126.657 21.469C130.327 19.9339 134.72 20.6627 137.704 23.6555C141.479 27.4427 147.512 27.6045 151.481 24.1407C151.823 23.8419 151.999 23.4003 151.999 22.9459V17.2025C148.055 21.1587 141.648 21.1587 137.704 17.2025C134.99 14.4802 131.11 13.6312 127.669 14.6552L128.278 10.5509C131.561 9.79357 135.149 10.6963 137.704 13.2589C141.648 17.2152 148.055 17.2152 151.999 13.2589V6.80596C148.055 10.7622 141.648 10.7622 137.704 6.80596C135.402 4.49734 132.262 3.53589 129.262 3.92163L129.686 1.06258C129.762 0.549693 129.37 0.0869106 128.852 0.0782732L124.161 0.000120847C123.73 -0.00704773 123.361 0.305487 123.298 0.731057L117.709 37.9885Z" fill="#061807"/>
</svg>
