<svg width="30" height="30" viewBox="0 0 30 30" fill="none" xmlns="http://www.w3.org/2000/svg">
<rect width="30" height="30" rx="10" fill="black" fill-opacity="0.5"/>
<path d="M20.0009 15.3812L15.0009 20.3332L10.0009 15.3812C9.67106 15.0603 9.41128 14.6745 9.23788 14.2483C9.06449 13.822 8.98123 13.3645 8.99334 12.9045C9.00546 12.4445 9.11269 11.992 9.30829 11.5754C9.50389 11.1589 9.78361 10.7874 10.1298 10.4843C10.4761 10.1811 10.8813 9.953 11.3201 9.81419C11.7588 9.67539 12.2215 9.62893 12.6791 9.67774C13.1367 9.72655 13.5792 9.86958 13.9788 10.0978C14.3784 10.326 14.7264 10.6345 15.0009 11.0039C15.2765 10.6372 15.6249 10.3314 16.0243 10.1056C16.4236 9.8798 16.8652 9.73884 17.3215 9.69155C17.7778 9.64427 18.2389 9.69167 18.676 9.8308C19.1132 9.96993 19.5169 10.1978 19.8619 10.5001C20.2069 10.8024 20.4858 11.1727 20.6811 11.5878C20.8765 12.0029 20.984 12.4538 20.9971 12.9123C21.0101 13.3709 20.9284 13.8272 20.7569 14.2527C20.5855 14.6782 20.3281 15.0638 20.0009 15.3852" stroke="white" stroke-width="1.33333" stroke-linecap="round" stroke-linejoin="round"/>
</svg>
