<svg width="30" height="30" viewBox="0 0 30 30" fill="none" xmlns="http://www.w3.org/2000/svg">
<rect width="30" height="30" rx="10" fill="black" fill-opacity="0.5"/>
<path d="M9 15C9 15.5304 9.21071 16.0391 9.58579 16.4142C9.96086 16.7893 10.4696 17 11 17C11.5304 17 12.0391 16.7893 12.4142 16.4142C12.7893 16.0391 13 15.5304 13 15C13 14.4696 12.7893 13.9609 12.4142 13.5858C12.0391 13.2107 11.5304 13 11 13C10.4696 13 9.96086 13.2107 9.58579 13.5858C9.21071 13.9609 9 14.4696 9 15Z" stroke="white" stroke-width="1.33333" stroke-linecap="round" stroke-linejoin="round"/>
<path d="M17 11C17 11.5304 17.2107 12.0391 17.5858 12.4142C17.9609 12.7893 18.4696 13 19 13C19.5304 13 20.0391 12.7893 20.4142 12.4142C20.7893 12.0391 21 11.5304 21 11C21 10.4696 20.7893 9.96086 20.4142 9.58579C20.0391 9.21071 19.5304 9 19 9C18.4696 9 17.9609 9.21071 17.5858 9.58579C17.2107 9.96086 17 10.4696 17 11Z" stroke="white" stroke-width="1.33333" stroke-linecap="round" stroke-linejoin="round"/>
<path d="M17 19C17 19.5304 17.2107 20.0391 17.5858 20.4142C17.9609 20.7893 18.4696 21 19 21C19.5304 21 20.0391 20.7893 20.4142 20.4142C20.7893 20.0391 21 19.5304 21 19C21 18.4696 20.7893 17.9609 20.4142 17.5858C20.0391 17.2107 19.5304 17 19 17C18.4696 17 17.9609 17.2107 17.5858 17.5858C17.2107 17.9609 17 18.4696 17 19Z" stroke="white" stroke-width="1.33333" stroke-linecap="round" stroke-linejoin="round"/>
<path d="M12.7969 14.1334L17.1969 11.8667" stroke="white" stroke-width="1.33333" stroke-linecap="round" stroke-linejoin="round"/>
<path d="M12.7969 15.8667L17.1969 18.1334" stroke="white" stroke-width="1.33333" stroke-linecap="round" stroke-linejoin="round"/>
</svg>
