<svg width="50" height="50" viewBox="0 0 50 50" fill="none" xmlns="http://www.w3.org/2000/svg">
<path d="M12.5 8.33343V41.6668C12.4999 42.0375 12.5987 42.4015 12.7862 42.7212C12.9737 43.041 13.2432 43.3049 13.5667 43.4858C13.8903 43.6667 14.2562 43.758 14.6268 43.7502C14.9974 43.7425 15.3593 43.636 15.675 43.4418L42.7583 26.7751C43.0617 26.5887 43.3122 26.3277 43.4859 26.0169C43.6597 25.7062 43.751 25.3561 43.751 25.0001C43.751 24.6441 43.6597 24.294 43.4859 23.9832C43.3122 23.6725 43.0617 23.4115 42.7583 23.2251L15.675 6.55843C15.3593 6.36419 14.9974 6.25771 14.6268 6.24997C14.2562 6.24222 13.8903 6.33351 13.5667 6.51439C13.2432 6.69528 12.9737 6.95922 12.7862 7.27898C12.5987 7.59874 12.4999 7.96274 12.5 8.33343Z" fill="white"/>
</svg>
