<svg width="390" height="194" viewBox="0 0 390 194" fill="none" xmlns="http://www.w3.org/2000/svg">
<path d="M32 0.5H358C363.609 0.5 367.785 0.500389 371.095 0.770823C374.399 1.04078 376.796 1.57734 378.853 2.62537C382.522 4.4949 385.505 7.47802 387.375 11.1472C388.423 13.2041 388.959 15.6006 389.229 18.9048C389.5 22.2147 389.5 26.3912 389.5 32V193.5H0.5V32C0.5 26.3912 0.500389 22.2147 0.770823 18.9048C1.04078 15.6006 1.57734 13.2041 2.62537 11.1472C4.4949 7.47802 7.47802 4.4949 11.1472 2.62537C13.2041 1.57734 15.6006 1.04078 18.9048 0.770823C22.2147 0.500389 26.3912 0.5 32 0.5Z" fill="black" fill-opacity="0.2" stroke="#F0F0F0"/>
<path d="M200 83.6667L210 87.0001V95.3334H205V108.667C205 109.109 204.824 109.533 204.512 109.845C204.199 110.158 203.775 110.333 203.333 110.333H186.667C186.225 110.333 185.801 110.158 185.488 109.845C185.176 109.533 185 109.109 185 108.667V95.3334H180V87.0001L190 83.6667C190 84.9928 190.527 86.2646 191.464 87.2023C192.402 88.14 193.674 88.6667 195 88.6667C196.326 88.6667 197.598 88.14 198.536 87.2023C199.473 86.2646 200 84.9928 200 83.6667Z" stroke="white" stroke-width="2" stroke-linecap="round" stroke-linejoin="round"/>
<path d="M192.5 95.3333H196.667L194.167 103.667" stroke="white" stroke-width="2" stroke-linecap="round" stroke-linejoin="round"/>
</svg>
