<svg width="16" height="16" viewBox="0 0 16 16" fill="none" xmlns="http://www.w3.org/2000/svg">
<path d="M6 7.33331C6 7.86375 6.21071 8.37245 6.58579 8.74753C6.96086 9.1226 7.46957 9.33331 8 9.33331C8.53043 9.33331 9.03914 9.1226 9.41421 8.74753C9.78929 8.37245 10 7.86375 10 7.33331C10 6.80288 9.78929 6.29417 9.41421 5.9191C9.03914 5.54403 8.53043 5.33331 8 5.33331C7.46957 5.33331 6.96086 5.54403 6.58579 5.9191C6.21071 6.29417 6 6.80288 6 7.33331Z" stroke="white" stroke-width="1.33333" stroke-linecap="round" stroke-linejoin="round"/>
<path d="M11.7765 11.1047L8.94788 13.9334C8.69787 14.1831 8.35893 14.3234 8.00554 14.3234C7.65216 14.3234 7.31322 14.1831 7.06321 13.9334L4.23388 11.1047C3.48802 10.3588 2.9801 9.40852 2.77434 8.37396C2.56857 7.3394 2.6742 6.26706 3.07788 5.29254C3.48155 4.31801 4.16514 3.48508 5.0422 2.89905C5.91925 2.31303 6.95039 2.00024 8.00521 2.00024C9.06003 2.00024 10.0912 2.31303 10.9682 2.89905C11.8453 3.48508 12.5289 4.31801 12.9325 5.29254C13.3362 6.26706 13.4419 7.3394 13.2361 8.37396C13.0303 9.40852 12.5224 10.3588 11.7765 11.1047Z" stroke="white" stroke-width="1.33333" stroke-linecap="round" stroke-linejoin="round"/>
</svg>
