<svg width="17" height="18" viewBox="0 0 17 18" fill="none" xmlns="http://www.w3.org/2000/svg">
<path d="M2.0625 9C2.0625 9.81255 2.22254 10.6172 2.5335 11.3679C2.84445 12.1186 3.30021 12.8007 3.87478 13.3752C4.44934 13.9498 5.13144 14.4056 5.88215 14.7165C6.63285 15.0275 7.43745 15.1875 8.25 15.1875C9.06255 15.1875 9.86715 15.0275 10.6179 14.7165C11.3686 14.4056 12.0507 13.9498 12.6252 13.3752C13.1998 12.8007 13.6556 12.1186 13.9665 11.3679C14.2775 10.6172 14.4375 9.81255 14.4375 9C14.4375 8.18745 14.2775 7.38285 13.9665 6.63215C13.6556 5.88144 13.1998 5.19934 12.6252 4.62478C12.0507 4.05021 11.3686 3.59445 10.6179 3.2835C9.86715 2.97254 9.06255 2.8125 8.25 2.8125C7.43745 2.8125 6.63285 2.97254 5.88215 3.2835C5.13144 3.59445 4.44934 4.05021 3.87478 4.62478C3.30021 5.19934 2.84445 5.88144 2.5335 6.63215C2.22254 7.38285 2.0625 8.18745 2.0625 9Z" stroke="#78E98C" stroke-width="1.375" stroke-linecap="round" stroke-linejoin="round"/>
<path d="M6.1875 7.625C6.1875 8.17201 6.4048 8.69661 6.79159 9.08341C7.17839 9.4702 7.70299 9.6875 8.25 9.6875C8.79701 9.6875 9.32161 9.4702 9.70841 9.08341C10.0952 8.69661 10.3125 8.17201 10.3125 7.625C10.3125 7.07799 10.0952 6.55339 9.70841 6.16659C9.32161 5.7798 8.79701 5.5625 8.25 5.5625C7.70299 5.5625 7.17839 5.7798 6.79159 6.16659C6.4048 6.55339 6.1875 7.07799 6.1875 7.625Z" stroke="#78E98C" stroke-width="1.375" stroke-linecap="round" stroke-linejoin="round"/>
<path d="M4.24219 13.7087C4.41235 13.1423 4.76054 12.6459 5.23511 12.2931C5.70967 11.9403 6.28533 11.7498 6.87669 11.75H9.62669C10.2188 11.7498 10.7952 11.9407 11.2701 12.2944C11.745 12.648 12.0931 13.1455 12.2626 13.7128" stroke="#78E98C" stroke-width="1.375" stroke-linecap="round" stroke-linejoin="round"/>
</svg>
