<svg width="16" height="16" viewBox="0 0 16 16" fill="none" xmlns="http://www.w3.org/2000/svg">
<path d="M2.66406 4.66671C2.66406 4.31309 2.80454 3.97395 3.05459 3.7239C3.30464 3.47385 3.64377 3.33337 3.9974 3.33337H11.9974C12.351 3.33337 12.6902 3.47385 12.9402 3.7239C13.1903 3.97395 13.3307 4.31309 13.3307 4.66671V12.6667C13.3307 13.0203 13.1903 13.3595 12.9402 13.6095C12.6902 13.8596 12.351 14 11.9974 14H3.9974C3.64377 14 3.30464 13.8596 3.05459 13.6095C2.80454 13.3595 2.66406 13.0203 2.66406 12.6667V4.66671Z" stroke="black" stroke-width="1.33333" stroke-linecap="round" stroke-linejoin="round"/>
<path d="M10.6641 2V4.66667" stroke="black" stroke-width="1.33333" stroke-linecap="round" stroke-linejoin="round"/>
<path d="M5.33594 2V4.66667" stroke="black" stroke-width="1.33333" stroke-linecap="round" stroke-linejoin="round"/>
<path d="M2.66406 7.33337H13.3307" stroke="black" stroke-width="1.33333" stroke-linecap="round" stroke-linejoin="round"/>
<path d="M7.33594 10H8.0026" stroke="black" stroke-width="1.33333" stroke-linecap="round" stroke-linejoin="round"/>
<path d="M8 10V12" stroke="black" stroke-width="1.33333" stroke-linecap="round" stroke-linejoin="round"/>
</svg>
