<svg width="153" height="37" viewBox="0 0 153 37" fill="none" xmlns="http://www.w3.org/2000/svg">
<path fill-rule="evenodd" clip-rule="evenodd" d="M17.8998 1.80663C16.4257 2.93571 15.5083 4.55878 15.1476 6.67581L14.489 10.4394C14.3949 10.9569 14.3479 11.4587 14.3479 11.9449C14.3479 13.6542 14.9046 15.0107 16.018 16.0143C17.1314 17.0022 18.7309 17.4962 20.8166 17.4962C23.2316 17.4962 25.1683 16.9395 26.6267 15.8261C28.1008 14.697 29.026 13.0818 29.4024 10.9805L30.061 7.21683C30.1551 6.69933 30.2021 6.19752 30.2021 5.71138C30.2021 3.98639 29.6376 2.62208 28.5085 1.61845C27.3951 0.599134 25.8034 0.0894775 23.7334 0.0894775C21.3341 0.0894775 19.3896 0.661861 17.8998 1.80663ZM19.8051 11.3568C19.8051 11.2 19.813 11.0745 19.8287 10.9805L20.6049 6.60524C20.7147 6.02502 20.9734 5.58593 21.3811 5.28798C21.7889 4.97434 22.322 4.81752 22.9807 4.81752C23.5452 4.81752 23.9765 4.93514 24.2744 5.17036C24.5881 5.40559 24.7449 5.74275 24.7449 6.18184C24.7449 6.27593 24.7292 6.41706 24.6978 6.60524L23.9216 10.9805C23.8275 11.5607 23.5766 12.0076 23.1689 12.3212C22.7611 12.6192 22.228 12.7682 21.5693 12.7682C20.3932 12.7682 19.8051 12.2977 19.8051 11.3568ZM14.7722 0.606976C14.6311 0.497203 14.4037 0.442317 14.0901 0.442317H3.83419C3.44214 0.442317 3.15987 0.520725 2.98737 0.677543C2.81487 0.818678 2.69726 1.08527 2.63453 1.47731L0.0470453 16.1084L0 16.4847C0 16.7357 0.062727 16.9082 0.188181 17.0022C0.329317 17.0963 0.564543 17.1434 0.89386 17.1434H4.28112C4.67316 17.1434 4.95543 17.0728 5.12793 16.9317C5.31611 16.7749 5.44157 16.5004 5.50429 16.1084L6.23349 11.9919H10.7498C11.1419 11.9919 11.4242 11.9214 11.5967 11.7802C11.7848 11.6234 11.9103 11.349 11.973 10.9569L12.4199 8.3224L12.467 7.94603C12.467 7.69513 12.3964 7.52263 12.2553 7.42854C12.1298 7.33445 11.9024 7.2874 11.5731 7.2874H7.05679L7.43315 5.14684H13.2668C13.6588 5.14684 13.9411 5.07627 14.1136 4.93514C14.3018 4.77832 14.4272 4.50389 14.4899 4.11185L14.9604 1.47731C14.9761 1.38322 14.9839 1.26561 14.9839 1.12447C14.9839 0.873565 14.9133 0.701066 14.7722 0.606976ZM31.3654 6.67581C31.7261 4.55878 32.6435 2.93571 34.1175 1.80663C35.6073 0.661861 37.5518 0.0894775 39.9512 0.0894775C42.0211 0.0894775 43.6128 0.599134 44.7262 1.61845C45.8553 2.62208 46.4199 3.98639 46.4199 5.71138C46.4199 6.19752 46.3728 6.69933 46.2787 7.21683L45.6201 10.9805C45.2437 13.0818 44.3185 14.697 42.8444 15.8261C41.386 16.9395 39.4493 17.4962 37.0343 17.4962C34.9487 17.4962 33.3491 17.0022 32.2357 16.0143C31.1223 15.0107 30.5656 13.6542 30.5656 11.9449C30.5656 11.4587 30.6127 10.9569 30.7068 10.4394L31.3654 6.67581ZM36.0464 10.9805C36.0307 11.0745 36.0229 11.2 36.0229 11.3568C36.0229 12.2977 36.6109 12.7682 37.7871 12.7682C38.4457 12.7682 38.9789 12.6192 39.3866 12.3212C39.7943 12.0076 40.0452 11.5607 40.1393 10.9805L40.9156 6.60524C40.9469 6.41706 40.9626 6.27593 40.9626 6.18184C40.9626 5.74275 40.8058 5.40559 40.4922 5.17036C40.1942 4.93514 39.763 4.81752 39.1984 4.81752C38.5398 4.81752 38.0066 4.97434 37.5989 5.28798C37.1912 5.58593 36.9324 6.02502 36.8226 6.60524L36.0464 10.9805ZM61.752 0.606976C61.6109 0.497203 61.3835 0.442317 61.0699 0.442317H48.9792C48.5872 0.442317 48.3049 0.520725 48.1324 0.677543C47.9599 0.818678 47.8423 1.08527 47.7796 1.47731L47.3091 4.11185L47.2621 4.48821C47.2621 4.73912 47.3248 4.91161 47.4503 5.00571C47.5914 5.0998 47.8266 5.14684 48.1559 5.14684H51.4726L49.5438 16.1084L49.4967 16.4847C49.4967 16.7357 49.5595 16.9082 49.6849 17.0022C49.8261 17.0963 50.0613 17.1434 50.3906 17.1434H53.7779C54.1699 17.1434 54.4522 17.0728 54.6247 16.9317C54.8129 16.7749 54.9383 16.5004 55.001 16.1084L56.9299 5.14684H60.2466C60.6386 5.14684 60.9209 5.07627 61.0934 4.93514C61.2816 4.77832 61.407 4.50389 61.4698 4.11185L61.9402 1.47731C61.9559 1.38322 61.9637 1.26561 61.9637 1.12447C61.9637 0.873565 61.8932 0.701066 61.752 0.606976ZM71.492 0.418794C72.9818 0.418794 74.1344 0.74027 74.9499 1.38322C75.781 2.02617 76.1966 2.92787 76.1966 4.08832C76.1966 4.43332 76.1652 4.7548 76.1025 5.05275C75.9613 5.82116 75.7104 6.45627 75.3498 6.95808C74.9891 7.44422 74.4481 7.89899 73.7267 8.3224L73.7032 8.44001C74.2834 8.72228 74.7225 9.13785 75.0204 9.68671C75.3341 10.2199 75.4909 10.855 75.4909 11.592C75.4909 11.9841 75.4595 12.3448 75.3968 12.6741C75.1302 14.1482 74.4088 15.2616 73.2327 16.0143C72.0566 16.767 70.5668 17.1434 68.7634 17.1434H61.3773C61.048 17.1434 60.8128 17.0963 60.6716 17.0022C60.5462 16.9082 60.4835 16.7357 60.4835 16.4847L60.5305 16.1084L63.118 1.45379C63.1964 1.06175 63.3218 0.795156 63.4943 0.65402C63.6668 0.497203 63.9491 0.418794 64.3412 0.418794H71.492ZM68.4341 12.9564C68.8732 12.9564 69.2104 12.8779 69.4456 12.7211C69.6808 12.5486 69.8298 12.2585 69.8925 11.8508C69.9082 11.7724 69.916 11.6783 69.916 11.5685C69.916 11.2862 69.8219 11.0902 69.6338 10.9805C69.4613 10.855 69.1868 10.7923 68.8105 10.7923H66.9287L66.5523 12.9564H68.4341ZM69.0692 6.58172C69.4926 6.58172 69.8141 6.51115 70.0336 6.37002C70.2532 6.2132 70.3943 5.95445 70.457 5.59377C70.4727 5.53104 70.4806 5.44479 70.4806 5.33502C70.4806 5.06843 70.3943 4.88025 70.2218 4.77048C70.0493 4.64502 69.7827 4.5823 69.4221 4.5823H68.0107L67.6579 6.58172H69.0692ZM74.5395 16.7435C74.5395 17.0101 74.7669 17.1434 75.2217 17.1434H78.6089C79.1578 17.1434 79.5655 17.065 79.8321 16.9082C80.0987 16.7357 80.3182 16.4534 80.4907 16.0613L81.0318 14.8617H85.454L85.5716 16.0613C85.603 16.4534 85.7284 16.7357 85.948 16.9082C86.1675 17.065 86.5752 17.1434 87.1712 17.1434H90.3702C90.9975 17.1434 91.3111 16.8925 91.3111 16.3907C91.3111 16.2809 91.3033 16.1946 91.2876 16.1319L88.6296 1.26561C88.5668 0.951973 88.4492 0.74027 88.2767 0.630498C88.1199 0.505044 87.8612 0.442317 87.5005 0.442317H84.0191C83.6428 0.442317 83.3527 0.497203 83.1488 0.606976C82.9606 0.716747 82.7803 0.944133 82.6078 1.28913L74.7512 16.1319C74.6101 16.3828 74.5395 16.5867 74.5395 16.7435ZM84.8659 8.69876L85.0541 10.5806H82.9606L83.8309 8.67523C84.2543 7.71865 84.568 6.64445 84.7719 5.45264H85.0071C84.8973 6.26809 84.8424 7.06786 84.8424 7.85194C84.8424 8.22831 84.8503 8.51058 84.8659 8.69876ZM99.4288 0.442317C99.7425 0.442317 99.9698 0.497203 100.111 0.606976C100.252 0.701066 100.323 0.873565 100.323 1.12447C100.323 1.26561 100.315 1.38322 100.299 1.47731L98.3703 12.4153H103.616C103.945 12.4153 104.173 12.4624 104.298 12.5565C104.439 12.6506 104.51 12.8231 104.51 13.074L104.463 13.4503L103.992 16.1084C103.929 16.5004 103.804 16.7749 103.616 16.9317C103.443 17.0728 103.161 17.1434 102.769 17.1434H93.1012C92.7719 17.1434 92.5367 17.0963 92.3956 17.0022C92.2701 16.9082 92.2074 16.7357 92.2074 16.4847L92.2544 16.1084L94.8419 1.47731C94.9046 1.08527 95.0223 0.818678 95.1948 0.677543C95.3673 0.520725 95.6495 0.442317 96.0416 0.442317H99.4288ZM113.044 0.606976C112.903 0.497203 112.675 0.442317 112.362 0.442317H108.974C108.582 0.442317 108.3 0.520725 108.128 0.677543C107.955 0.818678 107.837 1.08527 107.775 1.47731L105.187 16.1084L105.14 16.4847C105.14 16.7357 105.203 16.9082 105.328 17.0022C105.47 17.0963 105.705 17.1434 106.034 17.1434H115.702C116.094 17.1434 116.376 17.0728 116.549 16.9317C116.737 16.7749 116.862 16.5004 116.925 16.1084L117.396 13.4503L117.443 13.074C117.443 12.8231 117.372 12.6506 117.231 12.5565C117.105 12.4624 116.878 12.4153 116.549 12.4153H111.303L113.232 1.47731C113.248 1.38322 113.256 1.26561 113.256 1.12447C113.256 0.873565 113.185 0.701066 113.044 0.606976ZM39.2002 20.1107C39.0591 20.0009 38.8317 19.9461 38.518 19.9461H28.2622C27.8701 19.9461 27.5879 20.0245 27.4154 20.1813C27.2429 20.3224 27.1252 20.589 27.0625 20.9811L24.475 35.6121L24.428 35.9885C24.428 36.2394 24.4907 36.4119 24.6162 36.506C24.7573 36.6001 24.9925 36.6471 25.3218 36.6471H28.7091C29.1011 36.6471 29.3834 36.5766 29.5559 36.4354C29.7441 36.2786 29.8696 36.0042 29.9323 35.6121L30.6615 31.4957H35.1778C35.5699 31.4957 35.8521 31.4251 36.0246 31.284C36.2128 31.1271 36.3383 30.8527 36.401 30.4607L36.8479 27.8261L36.895 27.4498C36.895 27.1989 36.8244 27.0264 36.6833 26.9323C36.5578 26.8382 36.3304 26.7911 36.0011 26.7911H31.4848L31.8611 24.6506H37.6947C38.0868 24.6506 38.3691 24.58 38.5416 24.4389C38.7297 24.2821 38.8552 24.0076 38.9179 23.6156L39.3884 20.9811C39.4041 20.887 39.4119 20.7694 39.4119 20.6282C39.4119 20.3773 39.3413 20.2048 39.2002 20.1107ZM44.3742 31.0017C44.3742 30.9233 44.3899 30.79 44.4213 30.6018L46.1384 20.9811C46.1541 20.887 46.162 20.7694 46.162 20.6282C46.162 20.3773 46.0914 20.2048 45.9503 20.1107C45.8091 20.0009 45.5817 19.9461 45.2681 19.9461H41.8809C41.4888 19.9461 41.2065 20.0245 41.034 20.1813C40.8772 20.3224 40.7596 20.589 40.6812 20.9811L39.1052 29.8256C39.0111 30.3431 38.964 30.8527 38.964 31.3545C38.964 33.0638 39.5051 34.436 40.5871 35.471C41.6848 36.4903 43.2608 37 45.3152 37C47.7145 37 49.6198 36.4589 51.0312 35.3769C52.4425 34.2949 53.3285 32.7267 53.6892 30.6724L55.4064 20.9811C55.4377 20.7929 55.4534 20.6674 55.4534 20.6047C55.4534 20.3695 55.3828 20.2048 55.2417 20.1107C55.1006 20.0009 54.8653 19.9461 54.536 19.9461H51.1488C50.7567 19.9461 50.4744 20.0245 50.3019 20.1813C50.1294 20.3224 50.0118 20.589 49.9491 20.9811L48.232 30.6018C48.1379 31.1507 47.9026 31.5741 47.5263 31.872C47.1656 32.1543 46.6716 32.2954 46.0444 32.2954C45.4955 32.2954 45.0799 32.1857 44.7977 31.9661C44.5154 31.7466 44.3742 31.4251 44.3742 31.0017ZM70.9157 19.9461C71.2293 19.9461 71.4567 20.0009 71.5978 20.1107C71.739 20.2048 71.8095 20.3773 71.8095 20.6282C71.8095 20.7694 71.8017 20.887 71.786 20.9811L69.1985 35.6121C69.1358 36.0042 69.0103 36.2786 68.8222 36.4354C68.6497 36.5766 68.3674 36.6471 67.9753 36.6471H64.7057C64.4548 36.6471 64.2588 36.6079 64.1176 36.5295C63.9765 36.4511 63.8667 36.3256 63.7883 36.1531L61.9771 31.9191L61.7654 31.4251C61.4988 30.7978 61.2871 30.2019 61.1303 29.6374C60.9891 29.0572 60.8245 28.0692 60.6363 26.6735H60.4481L60.4951 27.732C60.5265 28.767 60.5422 29.3943 60.5422 29.6139C60.5422 30.2411 60.5108 30.8057 60.4481 31.3075C60.4011 31.8093 60.2913 32.5463 60.1188 33.5186L59.7424 35.6121C59.6797 36.0042 59.5542 36.2786 59.3661 36.4354C59.1936 36.5766 58.9113 36.6471 58.5192 36.6471H55.4143C55.0849 36.6471 54.8497 36.6001 54.7086 36.506C54.5831 36.4119 54.5204 36.2394 54.5204 35.9885L54.5674 35.6121L57.1549 20.9811C57.2177 20.589 57.3353 20.3224 57.5078 20.1813C57.6803 20.0245 57.9625 19.9461 58.3546 19.9461H61.8595C62.126 19.9461 62.3299 19.9853 62.471 20.0637C62.6122 20.1264 62.722 20.244 62.8004 20.4165L64.8704 25.4033C65.1683 26.1247 65.4035 26.7519 65.576 27.2851C65.7485 27.8026 65.9524 28.6416 66.1876 29.802H66.3993L66.2582 28.6965C66.1641 27.9908 66.0857 27.3635 66.023 26.8147C65.9759 26.2658 65.9524 25.8189 65.9524 25.4739C65.9524 24.8937 66.0465 24.1096 66.2347 23.1216L66.611 20.9811C66.6738 20.589 66.7914 20.3224 66.9639 20.1813C67.1364 20.0245 67.4186 19.9461 67.8107 19.9461H70.9157ZM85.5497 21.4986C84.452 20.4636 82.8838 19.9461 80.8451 19.9461H74.8939C74.5019 19.9461 74.2196 20.0245 74.0471 20.1813C73.8746 20.3224 73.757 20.589 73.6943 20.9811L71.1068 35.6121L71.0597 35.9885C71.0597 36.2394 71.1225 36.4119 71.2479 36.506C71.3891 36.6001 71.6243 36.6471 71.9536 36.6471H77.9048C80.3355 36.6471 82.2879 36.1061 83.762 35.0241C85.2517 33.9263 86.1769 32.3268 86.5376 30.2254L87.0786 27.191C87.1727 26.6422 87.2198 26.1168 87.2198 25.615C87.2198 23.89 86.6631 22.5179 85.5497 21.4986ZM80.3512 31.3781C79.9435 31.7387 79.3162 31.9191 78.4694 31.9191H77.2227L78.4929 24.6506H79.7396C80.461 24.6506 80.9706 24.776 81.2686 25.0269C81.5822 25.2779 81.739 25.6699 81.739 26.2031C81.739 26.4069 81.7155 26.6422 81.6684 26.9088L81.198 29.6609C81.0569 30.445 80.7746 31.0174 80.3512 31.3781ZM101.138 19.9461C101.451 19.9461 101.679 20.0009 101.82 20.1107C101.961 20.2048 102.032 20.3773 102.032 20.6282C102.032 20.7694 102.024 20.887 102.008 20.9811L101.538 23.6156C101.475 24.0076 101.35 24.2821 101.161 24.4389C100.989 24.58 100.707 24.6506 100.315 24.6506H94.4809L94.2692 25.8738H98.7856C99.1149 25.8738 99.3423 25.9208 99.4677 26.0149C99.6088 26.109 99.6794 26.2815 99.6794 26.5324L99.6324 26.9088L99.1619 29.5433C99.0992 29.9353 98.9816 30.2098 98.8091 30.3666C98.6366 30.5077 98.3543 30.5783 97.9623 30.5783H93.4459L93.2107 31.9191H99.209C99.5383 31.9191 99.7657 31.9661 99.8911 32.0602C100.032 32.1543 100.103 32.3268 100.103 32.5777L100.056 32.9541L99.5853 35.6121C99.5226 36.0042 99.3971 36.2786 99.209 36.4354C99.0365 36.5766 98.7542 36.6471 98.3622 36.6471H87.9416C87.6123 36.6471 87.3771 36.6001 87.236 36.506C87.1105 36.4119 87.0478 36.2394 87.0478 35.9885L87.0948 35.6121L89.6823 20.9811C89.745 20.589 89.8626 20.3224 90.0351 20.1813C90.2076 20.0245 90.4899 19.9461 90.882 19.9461H101.138ZM115.505 21.1928C114.58 20.3616 113.31 19.9461 111.695 19.9461H104.803C104.411 19.9461 104.128 20.0245 103.956 20.1813C103.783 20.3224 103.666 20.589 103.603 20.9811L101.015 35.6121L100.968 35.9885C100.968 36.2394 101.031 36.4119 101.157 36.506C101.298 36.6001 101.533 36.6471 101.862 36.6471H105.25C105.642 36.6471 105.924 36.5766 106.096 36.4354C106.285 36.2786 106.41 36.0042 106.473 35.6121L107.202 31.4721H107.319C107.633 31.4721 107.853 31.5584 107.978 31.7309C108.104 31.8877 108.221 32.1386 108.331 32.4836L109.131 35.3063C109.256 35.7768 109.484 36.1218 109.813 36.3413C110.142 36.5452 110.62 36.6471 111.248 36.6471H114.423C114.753 36.6471 115.004 36.5687 115.176 36.4119C115.349 36.2551 115.435 36.0434 115.435 35.7768C115.435 35.6513 115.411 35.5102 115.364 35.3534L114.165 31.9191C114.008 31.4643 113.82 31.0644 113.6 30.7194C115.356 29.6844 116.423 28.1163 116.799 26.0149C116.878 25.6072 116.917 25.1524 116.917 24.6506C116.917 23.1608 116.446 22.0082 115.505 21.1928ZM110.801 26.6265C110.55 26.9088 110.213 27.0499 109.789 27.0499H107.978L108.402 24.6506H110.213C110.542 24.6506 110.785 24.729 110.942 24.8858C111.114 25.0269 111.201 25.2386 111.201 25.5209C111.201 25.96 111.067 26.3285 110.801 26.6265Z" fill="white"/>
<path fill-rule="evenodd" clip-rule="evenodd" d="M119.783 35.9537C119.709 36.4449 120.09 36.8867 120.587 36.8867H125.092C125.495 36.8867 125.837 36.5918 125.896 36.1935L128.252 20.3189C131.726 18.8661 135.883 19.5559 138.707 22.3883C142.28 25.9727 147.99 26.1258 151.746 22.8476C152.07 22.5648 152.236 22.1468 152.236 21.7168V16.281C148.504 20.0253 142.44 20.0253 138.707 16.281C136.139 13.7046 132.466 12.901 129.209 13.8701L129.786 9.98577C132.893 9.26897 136.289 10.1233 138.707 12.5487C142.44 16.293 148.504 16.293 152.237 12.5487V6.44141C148.504 10.1857 142.44 10.1857 138.707 6.44141C136.529 4.25641 133.557 3.34647 130.717 3.7116L131.119 1.00566C131.191 0.520249 130.82 0.0822553 130.329 0.0740805L125.889 0.000114374C125.482 -0.00667023 125.133 0.289124 125.072 0.691899L119.783 35.9537Z" fill="#78E98C"/>
</svg>
