<svg width="264" height="68" viewBox="0 0 264 68" fill="none" xmlns="http://www.w3.org/2000/svg">
<path fill-rule="evenodd" clip-rule="evenodd" d="M30.571 3.31552C27.8658 5.38755 26.1823 8.36609 25.5204 12.2511L24.3117 19.1579C24.139 20.1076 24.0527 21.0285 24.0527 21.9206C24.0527 25.0574 25.0743 27.5468 27.1176 29.3886C29.1608 31.2016 32.0962 32.1081 35.9237 32.1081C40.3555 32.1081 43.9096 31.0865 46.586 29.0432C49.2912 26.9712 50.9891 24.007 51.6798 20.1508L52.8884 13.244C53.0611 12.2943 53.1474 11.3734 53.1474 10.4813C53.1474 7.31569 52.1114 4.81199 50.0394 2.97018C47.9961 1.0996 45.0752 0.164307 41.2764 0.164307C36.8734 0.164307 33.3049 1.21471 30.571 3.31552ZM34.0675 20.8414C34.0675 20.5537 34.0819 20.3234 34.1107 20.1508L35.5352 12.1216C35.7366 11.0569 36.2115 10.2511 36.9597 9.70428C37.7079 9.12871 38.6864 8.84093 39.8951 8.84093C40.9311 8.84093 41.7225 9.05677 42.2693 9.48844C42.8449 9.92011 43.1326 10.5388 43.1326 11.3446C43.1326 11.5173 43.1039 11.7763 43.0463 12.1216L41.6218 20.1508C41.4491 21.2156 40.9887 22.0357 40.2404 22.6113C39.4922 23.1581 38.5137 23.4315 37.305 23.4315C35.1467 23.4315 34.0675 22.5681 34.0675 20.8414ZM27.1091 1.11399C26.8501 0.912539 26.4328 0.811815 25.8572 0.811815H7.03627C6.31681 0.811815 5.79881 0.955706 5.48225 1.24349C5.16569 1.50249 4.94985 1.99172 4.83474 2.71118L0.0863346 29.5612L0 30.2519C0 30.7124 0.115113 31.0289 0.345338 31.2016C0.604342 31.3743 1.03602 31.4606 1.64036 31.4606H7.85645C8.5759 31.4606 9.09391 31.3311 9.41047 31.0721C9.75581 30.7843 9.98603 30.2807 10.1011 29.5612L11.4393 22.007H19.7275C20.4469 22.007 20.9649 21.8775 21.2815 21.6184C21.6268 21.3307 21.857 20.8271 21.9722 20.1076L22.7923 15.2729L22.8787 14.5822C22.8787 14.1217 22.7492 13.8052 22.4902 13.6325C22.2599 13.4598 21.8426 13.3735 21.2383 13.3735H12.9502L13.6409 9.44527H24.3464C25.0658 9.44527 25.5838 9.31577 25.9004 9.05677C26.2457 8.76898 26.4759 8.26537 26.591 7.54591L27.4544 2.71118C27.4832 2.53851 27.4976 2.32267 27.4976 2.06367C27.4976 1.60322 27.3681 1.28666 27.1091 1.11399ZM53.5739 12.2511C54.2358 8.36609 55.9193 5.38755 58.6245 3.31552C61.3584 1.21471 64.9269 0.164307 69.33 0.164307C73.1287 0.164307 76.0497 1.0996 78.0929 2.97018C80.1649 4.81199 81.201 7.31569 81.201 10.4813C81.201 11.3734 81.1146 12.2943 80.942 13.244L79.7333 20.1508C79.0426 24.007 77.3447 26.9712 74.6395 29.0432C71.9632 31.0865 68.4091 32.1081 63.9772 32.1081C60.1497 32.1081 57.2143 31.2016 55.1711 29.3886C53.1278 27.5468 52.1062 25.0574 52.1062 21.9206C52.1062 21.0285 52.1926 20.1076 52.3652 19.1579L53.5739 12.2511ZM62.1642 20.1508C62.1354 20.3234 62.121 20.5537 62.121 20.8414C62.121 22.5681 63.2002 23.4315 65.3586 23.4315C66.5673 23.4315 67.5457 23.1581 68.2939 22.6113C69.0422 22.0357 69.5026 21.2156 69.6753 20.1508L71.0998 12.1216C71.1574 11.7763 71.1861 11.5173 71.1861 11.3446C71.1861 10.5388 70.8984 9.92011 70.3228 9.48844C69.776 9.05677 68.9846 8.84093 67.9486 8.84093C66.7399 8.84093 65.7615 9.12871 65.0132 9.70428C64.265 10.2511 63.7902 11.0569 63.5887 12.1216L62.1642 20.1508ZM108.154 1.11399C107.895 0.912539 107.478 0.811815 106.903 0.811815H84.7146C83.9952 0.811815 83.4772 0.955706 83.1606 1.24349C82.8441 1.50249 82.6282 1.99172 82.5131 2.71118L81.6498 7.54591L81.5634 8.23659C81.5634 8.69704 81.6785 9.0136 81.9088 9.18627C82.1678 9.35894 82.5994 9.44527 83.2038 9.44527H89.2904L85.7506 29.5612L85.6643 30.2519C85.6643 30.7124 85.7794 31.0289 86.0097 31.2016C86.2687 31.3743 86.7003 31.4606 87.3047 31.4606H93.5208C94.2402 31.4606 94.7582 31.3311 95.0748 31.0721C95.4201 30.7843 95.6503 30.2807 95.7655 29.5612L99.3052 9.44527H105.392C106.111 9.44527 106.629 9.31577 106.946 9.05677C107.291 8.76898 107.521 8.26537 107.636 7.54591L108.5 2.71118C108.529 2.53851 108.543 2.32267 108.543 2.06367C108.543 1.60322 108.413 1.28666 108.154 1.11399ZM124.365 0.768649C127.099 0.768649 129.214 1.3586 130.71 2.53851C132.236 3.71841 132.998 5.37316 132.998 7.50275C132.998 8.13587 132.941 8.72582 132.825 9.27261C132.566 10.6827 132.106 11.8483 131.444 12.7692C130.782 13.6613 129.789 14.4958 128.466 15.2729L128.422 15.4887C129.487 16.0067 130.293 16.7693 130.84 17.7766C131.415 18.755 131.703 19.9205 131.703 21.2731C131.703 21.9926 131.646 22.6545 131.53 23.2588C131.041 25.964 129.717 28.0072 127.559 29.3886C125.401 30.7699 122.667 31.4606 119.357 31.4606H105.803C105.198 31.4606 104.767 31.3743 104.508 31.2016C104.278 31.0289 104.162 30.7124 104.162 30.2519L104.249 29.5612L108.997 2.66801C109.141 1.94855 109.371 1.45932 109.688 1.20032C110.004 0.912539 110.522 0.768649 111.242 0.768649H124.365ZM118.753 23.7768C119.559 23.7768 120.177 23.6329 120.609 23.3451C121.041 23.0286 121.314 22.4962 121.429 21.748C121.458 21.6041 121.472 21.4314 121.472 21.2299C121.472 20.7119 121.3 20.3522 120.954 20.1508C120.638 19.9205 120.134 19.8054 119.444 19.8054H115.99L115.3 23.7768H118.753ZM119.918 12.0785C120.695 12.0785 121.285 11.949 121.688 11.69C122.091 11.4022 122.35 10.9274 122.465 10.2655C122.494 10.1503 122.509 9.99206 122.509 9.79061C122.509 9.30138 122.35 8.95604 122.034 8.7546C121.717 8.52437 121.228 8.40926 120.566 8.40926H117.976L117.328 12.0785H119.918ZM128.818 30.7267C128.818 31.216 129.236 31.4606 130.07 31.4606H136.286C137.294 31.4606 138.042 31.3167 138.531 31.0289C139.02 30.7124 139.423 30.1944 139.74 29.4749L140.733 27.2734H148.848L149.064 29.4749C149.121 30.1944 149.352 30.7124 149.755 31.0289C150.157 31.3167 150.906 31.4606 151.999 31.4606H157.87C159.021 31.4606 159.597 31.0001 159.597 30.0792C159.597 29.8778 159.582 29.7195 159.553 29.6044L154.676 2.32267C154.56 1.74711 154.345 1.3586 154.028 1.15715C153.74 0.926928 153.265 0.811815 152.604 0.811815H146.215C145.524 0.811815 144.992 0.912539 144.618 1.11399C144.272 1.31543 143.941 1.73272 143.625 2.36584L129.207 29.6044C128.948 30.0649 128.818 30.439 128.818 30.7267ZM147.769 15.9635L148.114 19.4169H144.272L145.869 15.9204C146.646 14.1649 147.222 12.1936 147.596 10.0064H148.028C147.826 11.5029 147.726 12.9706 147.726 14.4095C147.726 15.1002 147.74 15.6182 147.769 15.9635ZM173.556 0.811815C174.131 0.811815 174.549 0.912539 174.808 1.11399C175.067 1.28666 175.196 1.60322 175.196 2.06367C175.196 2.32267 175.182 2.53851 175.153 2.71118L171.613 22.784H181.24C181.844 22.784 182.261 22.8703 182.491 23.043C182.75 23.2156 182.88 23.5322 182.88 23.9927L182.794 24.6833L181.93 29.5612C181.815 30.2807 181.585 30.7843 181.24 31.0721C180.923 31.3311 180.405 31.4606 179.686 31.4606H161.944C161.339 31.4606 160.908 31.3743 160.649 31.2016C160.419 31.0289 160.303 30.7124 160.303 30.2519L160.39 29.5612L165.138 2.71118C165.253 1.99172 165.469 1.50249 165.786 1.24349C166.102 0.955706 166.62 0.811815 167.34 0.811815H173.556ZM196.924 1.11399C196.665 0.912539 196.248 0.811815 195.673 0.811815H189.456C188.737 0.811815 188.219 0.955706 187.902 1.24349C187.586 1.50249 187.37 1.99172 187.255 2.71118L182.506 29.5612L182.42 30.2519C182.42 30.7124 182.535 31.0289 182.765 31.2016C183.024 31.3743 183.456 31.4606 184.061 31.4606H201.802C202.522 31.4606 203.04 31.3311 203.356 31.0721C203.702 30.7843 203.932 30.2807 204.047 29.5612L204.91 24.6833L204.997 23.9927C204.997 23.5322 204.867 23.2156 204.608 23.043C204.378 22.8703 203.961 22.784 203.356 22.784H193.73L197.27 2.71118C197.298 2.53851 197.313 2.32267 197.313 2.06367C197.313 1.60322 197.183 1.28666 196.924 1.11399ZM71.3669 36.9062C71.1079 36.7047 70.6906 36.604 70.115 36.604H51.2941C50.5746 36.604 50.0566 36.7479 49.7401 37.0357C49.4235 37.2947 49.2077 37.7839 49.0925 38.5034L44.3441 65.3534L44.2578 66.0441C44.2578 66.5045 44.3729 66.8211 44.6031 66.9938C44.8622 67.1665 45.2938 67.2528 45.8982 67.2528H52.1143C52.8337 67.2528 53.3517 67.1233 53.6683 66.8643C54.0136 66.5765 54.2438 66.0729 54.359 65.3534L55.6971 57.7991H63.9853C64.7047 57.7991 65.2227 57.6696 65.5393 57.4106C65.8846 57.1229 66.1149 56.6192 66.23 55.8998L67.0501 51.065L67.1365 50.3744C67.1365 49.9139 67.007 49.5974 66.748 49.4247C66.5177 49.252 66.1005 49.1657 65.4961 49.1657H57.208L57.8987 45.2375H68.6042C69.3236 45.2375 69.8416 45.108 70.1582 44.849C70.5035 44.5612 70.7337 44.0576 70.8489 43.3381L71.7122 38.5034C71.741 38.3307 71.7554 38.1149 71.7554 37.8559C71.7554 37.3954 71.6259 37.0788 71.3669 36.9062ZM78.8288 56.8926C78.8288 56.7487 78.8576 56.5041 78.9151 56.1588L82.0664 38.5034C82.0951 38.3307 82.1095 38.1149 82.1095 37.8559C82.1095 37.3954 81.98 37.0788 81.721 36.9062C81.462 36.7047 81.0447 36.604 80.4692 36.604H74.2531C73.5336 36.604 73.0156 36.7479 72.6991 37.0357C72.4113 37.2947 72.1954 37.7839 72.0515 38.5034L69.1593 54.7343C68.9867 55.6839 68.9003 56.6192 68.9003 57.5401C68.9003 60.677 69.8932 63.1951 71.8789 65.0944C73.8933 66.965 76.7856 67.9003 80.5555 67.9003C84.9586 67.9003 88.4551 66.9074 91.0452 64.9217C93.6352 62.9361 95.2612 60.0582 95.9231 56.2883L99.0743 38.5034C99.1318 38.158 99.1606 37.9278 99.1606 37.8127C99.1606 37.381 99.0311 37.0788 98.7721 36.9062C98.5131 36.7047 98.0814 36.604 97.4771 36.604H91.261C90.5415 36.604 90.0235 36.7479 89.707 37.0357C89.3904 37.2947 89.1746 37.7839 89.0595 38.5034L85.9082 56.1588C85.7356 57.166 85.3039 57.943 84.6132 58.4898C83.9513 59.0078 83.0448 59.2668 81.8937 59.2668C80.8865 59.2668 80.1238 59.0654 79.6058 58.6625C79.0878 58.2596 78.8288 57.6696 78.8288 56.8926ZM124.857 36.604C125.433 36.604 125.85 36.7047 126.109 36.9062C126.368 37.0788 126.497 37.3954 126.497 37.8559C126.497 38.1149 126.483 38.3307 126.454 38.5034L121.706 65.3534C121.591 66.0729 121.361 66.5765 121.015 66.8643C120.699 67.1233 120.181 67.2528 119.461 67.2528H113.461C113 67.2528 112.641 67.1808 112.382 67.0369C112.123 66.8931 111.921 66.6628 111.777 66.3463L108.453 58.5762L108.065 57.6696C107.576 56.5185 107.187 55.4249 106.899 54.3889C106.64 53.3241 106.338 51.5111 105.993 48.9498H105.648L105.734 50.8924C105.792 52.7917 105.82 53.9429 105.82 54.3458C105.82 55.4969 105.763 56.5329 105.648 57.4538C105.561 58.3747 105.36 59.7273 105.043 61.5115L104.353 65.3534C104.237 66.0729 104.007 66.5765 103.662 66.8643C103.345 67.1233 102.827 67.2528 102.108 67.2528H96.4098C95.8055 67.2528 95.3738 67.1665 95.1148 66.9938C94.8846 66.8211 94.7695 66.5045 94.7695 66.0441L94.8558 65.3534L99.6042 38.5034C99.7193 37.7839 99.9352 37.2947 100.252 37.0357C100.568 36.7479 101.086 36.604 101.806 36.604H108.238C108.727 36.604 109.101 36.6759 109.36 36.8198C109.619 36.935 109.82 37.1508 109.964 37.4674L113.763 46.6188C114.31 47.9426 114.742 49.0937 115.058 50.0722C115.375 51.0219 115.749 52.5615 116.18 54.6911H116.569L116.31 52.6622C116.137 51.3672 115.993 50.2161 115.878 49.2089C115.792 48.2016 115.749 47.3814 115.749 46.7483C115.749 45.6835 115.921 44.2446 116.267 42.4316L116.957 38.5034C117.073 37.7839 117.288 37.2947 117.605 37.0357C117.922 36.7479 118.44 36.604 119.159 36.604H124.857ZM148.862 39.453C146.847 37.5537 143.969 36.604 140.228 36.604H129.307C128.587 36.604 128.069 36.7479 127.753 37.0357C127.436 37.2947 127.22 37.7839 127.105 38.5034L122.357 65.3534L122.271 66.0441C122.271 66.5045 122.386 66.8211 122.616 66.9938C122.875 67.1665 123.307 67.2528 123.911 67.2528H134.832C139.293 67.2528 142.876 66.2599 145.581 64.2742C148.315 62.2598 150.013 59.3244 150.675 55.4681L151.667 49.8995C151.84 48.8923 151.926 47.9282 151.926 47.0073C151.926 43.8417 150.905 41.3236 148.862 39.453ZM139.322 57.5833C138.573 58.2452 137.422 58.5762 135.868 58.5762H133.58L135.911 45.2375H138.199C139.523 45.2375 140.458 45.4677 141.005 45.9281C141.581 46.3886 141.869 47.108 141.869 48.0865C141.869 48.4606 141.825 48.8923 141.739 49.3815L140.876 54.4321C140.617 55.871 140.099 56.9214 139.322 57.5833ZM175.19 36.604C175.766 36.604 176.183 36.7047 176.442 36.9062C176.701 37.0788 176.831 37.3954 176.831 37.8559C176.831 38.1149 176.816 38.3307 176.787 38.5034L175.924 43.3381C175.809 44.0576 175.579 44.5612 175.233 44.849C174.917 45.108 174.399 45.2375 173.679 45.2375H162.974L162.585 47.4822H170.874C171.478 47.4822 171.895 47.5685 172.125 47.7412C172.384 47.9138 172.514 48.2304 172.514 48.6908L172.428 49.3815L171.564 54.2163C171.449 54.9357 171.233 55.4393 170.917 55.7271C170.6 55.9861 170.082 56.1156 169.363 56.1156H161.075L160.643 58.5762H171.651C172.255 58.5762 172.672 58.6625 172.902 58.8352C173.161 59.0078 173.291 59.3244 173.291 59.7848L173.205 60.4755L172.341 65.3534C172.226 66.0729 171.996 66.5765 171.651 66.8643C171.334 67.1233 170.816 67.2528 170.097 67.2528H150.973C150.369 67.2528 149.937 67.1665 149.678 66.9938C149.448 66.8211 149.333 66.5045 149.333 66.0441L149.419 65.3534L154.168 38.5034C154.283 37.7839 154.499 37.2947 154.815 37.0357C155.132 36.7479 155.65 36.604 156.369 36.604H175.19ZM199.279 38.8919C197.581 37.3666 195.25 36.604 192.286 36.604H179.638C178.918 36.604 178.4 36.7479 178.084 37.0357C177.767 37.2947 177.551 37.7839 177.436 38.5034L172.688 65.3534L172.602 66.0441C172.602 66.5045 172.717 66.8211 172.947 66.9938C173.206 67.1665 173.638 67.2528 174.242 67.2528H180.458C181.178 67.2528 181.696 67.1233 182.012 66.8643C182.357 66.5765 182.588 66.0729 182.703 65.3534L184.041 57.756H184.257C184.832 57.756 185.235 57.9143 185.465 58.2308C185.696 58.5186 185.912 58.979 186.113 59.6122L187.581 64.7922C187.811 65.6556 188.228 66.2887 188.833 66.6916C189.437 67.0657 190.315 67.2528 191.466 67.2528H197.293C197.898 67.2528 198.358 67.1089 198.675 66.8211C198.991 66.5333 199.15 66.1448 199.15 65.6556C199.15 65.4254 199.106 65.1664 199.02 64.8786L196.818 58.5762C196.531 57.7416 196.185 57.0077 195.782 56.3746C199.006 54.4753 200.963 51.5974 201.653 47.7412C201.797 46.9929 201.869 46.1584 201.869 45.2375C201.869 42.5035 201.006 40.3883 199.279 38.8919ZM190.646 48.8635C190.185 49.3815 189.566 49.6405 188.789 49.6405H185.465L186.242 45.2375H189.566C190.171 45.2375 190.617 45.3814 190.905 45.6691C191.221 45.9281 191.379 46.3166 191.379 46.8347C191.379 47.6404 191.135 48.3167 190.646 48.8635Z" fill="#78E98C"/>
<path fill-rule="evenodd" clip-rule="evenodd" d="M204.439 65.9801C204.303 66.8815 205.002 67.6921 205.913 67.6921H214.182C214.92 67.6921 215.548 67.151 215.656 66.4202L219.98 37.2915C226.356 34.6208 233.99 35.8856 239.174 41.0857C245.732 47.6636 256.21 47.9445 263.102 41.9285C263.697 41.4095 264.003 40.6426 264.003 39.8534V29.8779C257.153 36.7493 246.024 36.7493 239.174 29.8779C234.459 25.1478 227.716 23.6738 221.737 25.456L222.795 18.327C228.499 17.0084 234.735 18.5756 239.174 23.0286C246.024 29.8999 257.153 29.8999 264.003 23.0286V11.8208C257.153 18.6921 246.024 18.6921 239.174 11.8208C235.175 7.8091 229.717 6.13955 224.504 6.81217L225.242 1.84553C225.374 0.954726 224.692 0.15095 223.792 0.135948L215.644 0.000209891C214.897 -0.0122408 214.256 0.530582 214.145 1.26973L204.439 65.9801Z" fill="#78E98C"/>
</svg>
