<svg width="1440" height="442" viewBox="0 0 1440 442" fill="none" xmlns="http://www.w3.org/2000/svg">
<path opacity="0.1" d="M-22 170.78C439.106 -56.9265 980.894 -56.9265 1442 170.78V441.89C980.894 214.184 439.106 214.184 -22 441.89V170.78Z" fill="url(#paint0_linear_17_5983)"/>
<path fill-rule="evenodd" clip-rule="evenodd" d="M924.083 301.165C923.415 305.615 926.862 309.617 931.362 309.617H960.087C963.735 309.617 966.832 306.946 967.368 303.338L983.88 192.098C1008.52 181.795 1038.01 186.689 1058.03 206.778C1083.06 231.886 1122.87 233.258 1149.51 210.894C1152.5 208.39 1154 204.591 1154 200.694V163.459C1127.52 190.017 1084.51 190.017 1058.03 163.459C1039.82 145.185 1013.77 139.485 990.67 146.357L994.759 118.805C1016.8 113.723 1040.88 119.783 1058.03 136.986C1084.51 163.545 1127.52 163.545 1154 136.986V93.666C1127.52 120.225 1084.51 120.225 1058.03 93.666C1042.58 78.1689 1021.5 71.7144 1001.37 74.3024L1003.95 56.9123C1004.6 52.5144 1001.23 48.5461 996.789 48.472L968.519 48.001C964.83 47.9396 961.665 50.6195 961.117 54.2687L924.083 301.165Z" fill="url(#paint1_linear_17_5983)"/>
<ellipse opacity="0.15" cx="944.5" cy="309.5" rx="67.5" ry="10.5" fill="url(#paint2_linear_17_5983)"/>
<defs>
<linearGradient id="paint0_linear_17_5983" x1="1040.46" y1="19.4099" x2="483.291" y2="19.4099" gradientUnits="userSpaceOnUse">
<stop stop-color="#84DF88"/>
<stop offset="1" stop-color="#9BF39F" stop-opacity="0"/>
</linearGradient>
<linearGradient id="paint1_linear_17_5983" x1="982" y1="318.5" x2="936" y2="35.0001" gradientUnits="userSpaceOnUse">
<stop stop-color="#84DF88"/>
<stop offset="1" stop-color="#9BF39F" stop-opacity="0"/>
</linearGradient>
<linearGradient id="paint2_linear_17_5983" x1="969.471" y1="299" x2="857.101" y2="299" gradientUnits="userSpaceOnUse">
<stop stop-color="#84DF88"/>
<stop offset="1" stop-color="#9BF39F" stop-opacity="0"/>
</linearGradient>
</defs>
</svg>
