<svg width="319" height="194" viewBox="0 0 319 194" fill="none" xmlns="http://www.w3.org/2000/svg">
<path d="M0.5 32C0.5 26.3912 0.500389 22.2147 0.770823 18.9048C1.04078 15.6006 1.57734 13.2041 2.62537 11.1472C4.4949 7.47802 7.47802 4.4949 11.1472 2.62537C13.2041 1.57734 15.6006 1.04078 18.9048 0.770823C22.2147 0.500389 26.3912 0.5 32 0.5H287C292.609 0.5 296.785 0.500389 300.095 0.770823C303.399 1.04078 305.796 1.57734 307.853 2.62537C311.522 4.4949 314.505 7.47802 316.375 11.1472C317.423 13.2041 317.959 15.6006 318.229 18.9048C318.5 22.2147 318.5 26.3912 318.5 32V193.5H0.5V32Z" fill="black" fill-opacity="0.2" stroke="#F0F0F0"/>
<path d="M155 97C155 98.3261 155.527 99.5979 156.464 100.536C157.402 101.473 158.674 102 160 102C161.326 102 162.598 101.473 163.536 100.536C164.473 99.5979 165 98.3261 165 97C165 95.6739 164.473 94.4021 163.536 93.4645C162.598 92.5268 161.326 92 160 92C158.674 92 157.402 92.5268 156.464 93.4645C155.527 94.4021 155 95.6739 155 97Z" stroke="white" stroke-width="2" stroke-linecap="round" stroke-linejoin="round"/>
<path d="M145 92H150V102H145V92Z" stroke="white" stroke-width="2" stroke-linecap="round" stroke-linejoin="round"/>
<path d="M170 92H175V102H170V92Z" stroke="white" stroke-width="2" stroke-linecap="round" stroke-linejoin="round"/>
<path d="M145 88.6666C145 87.7826 145.351 86.9347 145.976 86.3096C146.601 85.6845 147.449 85.3333 148.333 85.3333H171.667C172.551 85.3333 173.399 85.6845 174.024 86.3096C174.649 86.9347 175 87.7826 175 88.6666V105.333C175 106.217 174.649 107.065 174.024 107.69C173.399 108.315 172.551 108.667 171.667 108.667H148.333C147.449 108.667 146.601 108.315 145.976 107.69C145.351 107.065 145 106.217 145 105.333V88.6666Z" stroke="white" stroke-width="2" stroke-linecap="round" stroke-linejoin="round"/>
<path d="M160 85.3333V108.667" stroke="white" stroke-width="2" stroke-linecap="round" stroke-linejoin="round"/>
</svg>
