<svg width="496" height="311" viewBox="0 0 496 311" fill="none" xmlns="http://www.w3.org/2000/svg">
<path d="M85.9688 310.467Lnan nanL85.9688 310.467C64.6821 285.991 30.6739 276.879 0.00135267 287.432Lnan nanL0.00135267 287.432L12.9423 239.136Lnan nanL12.9423 239.136C43.6149 228.583 77.623 237.695 98.9097 262.171Lnan nanL98.9097 262.171L85.9688 310.467Z" fill="url(#paint0_linear_24_5985)"/>
<path d="M314.138 235.691L321.331 234.34C330.083 232.696 338.765 237.519 341.994 245.818C344.552 252.392 350.626 256.941 357.654 257.546L366.069 258.27L353.384 287.445L344.969 286.72C337.941 286.115 331.867 281.567 329.309 274.992C326.08 266.693 317.398 261.871 308.646 263.515L301.453 264.865L314.138 235.691Z" fill="url(#paint1_linear_24_5985)"/>
<path d="M104 44.3082L127.048 45.9719C146.915 47.406 166.758 42.8744 184.032 32.9581L196.122 26.018L221.014 69.3813L208.924 76.3214C191.65 86.2377 171.807 90.7693 151.94 89.3352L128.892 87.6715L104 44.3082Z" fill="url(#paint2_linear_24_5985)"/>
<path d="M397.11 126.671L397.764 115.187C398.56 101.213 409.195 89.7878 423.076 87.9938Lnan nanL423.076 87.9938C434.072 86.5726 443.304 79.0236 446.88 68.5285L451.161 55.964L490.884 86.3302L486.603 98.8946C483.027 109.39 473.795 116.939 462.798 118.36Lnan nanL462.798 118.36C448.918 120.154 438.283 131.579 437.487 145.553L436.833 157.037L397.11 126.671Z" fill="url(#paint3_linear_24_5985)"/>
<defs>
<linearGradient id="paint0_linear_24_5985" x1="-1.53709" y1="275.787" x2="98.4977" y2="256.486" gradientUnits="userSpaceOnUse">
<stop stop-color="#84DF88" stop-opacity="0.29"/>
<stop offset="1" stop-color="#9BF39F" stop-opacity="0"/>
</linearGradient>
<linearGradient id="paint1_linear_24_5985" x1="312.453" y1="232.437" x2="340.374" y2="283.126" gradientUnits="userSpaceOnUse">
<stop stop-color="#84DF88" stop-opacity="0.29"/>
<stop offset="1" stop-color="#9BF39F" stop-opacity="0"/>
</linearGradient>
<linearGradient id="paint2_linear_24_5985" x1="191.884" y1="9.59634" x2="125.364" y2="91.6919" gradientUnits="userSpaceOnUse">
<stop stop-color="#84DF88" stop-opacity="0.29"/>
<stop offset="1" stop-color="#9BF39F" stop-opacity="0"/>
</linearGradient>
<linearGradient id="paint3_linear_24_5985" x1="453.894" y1="52.389" x2="431.271" y2="152.785" gradientUnits="userSpaceOnUse">
<stop stop-color="#84DF88" stop-opacity="0.29"/>
<stop offset="1" stop-color="#9BF39F" stop-opacity="0"/>
</linearGradient>
</defs>
</svg>
