<svg width="430" height="311" viewBox="0 0 430 311" fill="none" xmlns="http://www.w3.org/2000/svg">
<path d="M54.9688 310.467Lnan nanL54.9688 310.467C33.6821 285.992 -0.326073 276.879 -30.9986 287.432Lnan nanL-30.9986 287.432L-18.0577 239.136Lnan nanL-18.0577 239.136C12.6149 228.583 46.623 237.695 67.9097 262.171Lnan nanL67.9097 262.171L54.9688 310.467Z" fill="url(#paint0_linear_24_5986)"/>
<path d="M283.138 235.691L290.331 234.34C299.083 232.696 307.765 237.519 310.994 245.818C313.552 252.392 319.626 256.941 326.654 257.546L335.069 258.27L322.384 287.445L313.969 286.72C306.941 286.115 300.867 281.567 298.309 274.992C295.08 266.693 286.398 261.871 277.646 263.515L270.453 264.865L283.138 235.691Z" fill="url(#paint1_linear_24_5986)"/>
<path d="M73 44.3082L96.0481 45.9719C115.915 47.4059 135.758 42.8743 153.032 32.958L165.122 26.018L190.014 69.3813L177.924 76.3213C160.65 86.2377 140.807 90.7692 120.94 89.3352L97.8922 87.6715L73 44.3082Z" fill="url(#paint2_linear_24_5986)"/>
<path d="M366.11 126.671L366.764 115.187C367.56 101.213 378.195 89.7878 392.076 87.9938Lnan nanL392.076 87.9938C403.072 86.5726 412.304 79.0236 415.88 68.5285L420.161 55.964L459.884 86.3302L455.603 98.8946C452.027 109.39 442.795 116.939 431.798 118.36Lnan nanL431.798 118.36C417.918 120.154 407.283 131.579 406.487 145.553L405.833 157.037L366.11 126.671Z" fill="url(#paint3_linear_24_5986)"/>
<defs>
<linearGradient id="paint0_linear_24_5986" x1="-32.5371" y1="275.787" x2="67.4977" y2="256.486" gradientUnits="userSpaceOnUse">
<stop stop-color="#84DF88" stop-opacity="0.29"/>
<stop offset="1" stop-color="#9BF39F" stop-opacity="0"/>
</linearGradient>
<linearGradient id="paint1_linear_24_5986" x1="281.453" y1="232.437" x2="309.374" y2="283.126" gradientUnits="userSpaceOnUse">
<stop stop-color="#84DF88" stop-opacity="0.29"/>
<stop offset="1" stop-color="#9BF39F" stop-opacity="0"/>
</linearGradient>
<linearGradient id="paint2_linear_24_5986" x1="160.884" y1="9.59628" x2="94.3645" y2="91.6919" gradientUnits="userSpaceOnUse">
<stop stop-color="#84DF88" stop-opacity="0.29"/>
<stop offset="1" stop-color="#9BF39F" stop-opacity="0"/>
</linearGradient>
<linearGradient id="paint3_linear_24_5986" x1="422.894" y1="52.389" x2="400.271" y2="152.785" gradientUnits="userSpaceOnUse">
<stop stop-color="#84DF88" stop-opacity="0.29"/>
<stop offset="1" stop-color="#9BF39F" stop-opacity="0"/>
</linearGradient>
</defs>
</svg>
